<?xml version="1.0" encoding="UTF-8"?>
<svg xmlns="http://www.w3.org/2000/svg" xmlns:xlink="http://www.w3.org/1999/xlink" width="756pt" height="414pt" viewBox="0 0 756 414" version="1.1">
<g id="surface34">
<rect x="0" y="0" width="756" height="414" style="fill:rgb(100%,100%,100%);fill-opacity:1;stroke:none;"/>
<path style=" stroke:none;fill-rule:nonzero;fill:rgb(100%,64.705882%,0%);fill-opacity:0.698039;" d="M 23.234375 399.4375 L 185.730469 399.4375 L 185.871094 399.433594 L 196.757813 399.433594 L 196.898438 399.429688 L 203.320313 399.429688 L 203.460938 399.425781 L 208.066406 399.425781 L 208.207031 399.421875 L 211.695313 399.421875 L 211.835938 399.417969 L 214.769531 399.417969 L 214.90625 399.414063 L 217.421875 399.414063 L 217.558594 399.410156 L 219.792969 399.410156 L 219.933594 399.40625 L 221.75 399.40625 L 221.886719 399.402344 L 223.5625 399.402344 L 223.703125 399.398438 L 225.238281 399.398438 L 225.378906 399.394531 L 226.773438 399.394531 L 226.914063 399.390625 L 228.308594 399.390625 L 228.449219 399.386719 L 229.566406 399.386719 L 229.707031 399.382813 L 230.824219 399.382813 L 230.960938 399.378906 L 231.9375 399.378906 L 232.078125 399.375 L 233.054688 399.375 L 233.195313 399.371094 L 234.171875 399.371094 L 234.3125 399.367188 L 235.148438 399.367188 L 235.289063 399.363281 L 235.988281 399.363281 L 236.128906 399.359375 L 236.964844 399.359375 L 237.105469 399.355469 L 237.800781 399.355469 L 237.941406 399.351563 L 238.640625 399.351563 L 238.78125 399.347656 L 239.476563 399.347656 L 239.617188 399.34375 L 240.175781 399.34375 L 240.316406 399.339844 L 240.875 399.339844 L 241.011719 399.335938 L 241.570313 399.335938 L 241.710938 399.332031 L 242.269531 399.332031 L 242.410156 399.328125 L 242.96875 399.328125 L 243.105469 399.324219 L 243.664063 399.324219 L 243.804688 399.320313 L 244.222656 399.320313 L 244.363281 399.316406 L 244.78125 399.316406 L 244.921875 399.3125 L 245.480469 399.3125 L 245.621094 399.308594 L 246.039063 399.308594 L 246.179688 399.304688 L 246.597656 399.304688 L 246.738281 399.300781 L 247.15625 399.300781 L 247.296875 399.296875 L 247.574219 399.296875 L 247.714844 399.292969 L 248.132813 399.292969 L 248.273438 399.289063 L 248.691406 399.289063 L 248.832031 399.285156 L 249.109375 399.285156 L 249.25 399.28125 L 249.667969 399.28125 L 249.808594 399.277344 L 250.085938 399.277344 L 250.226563 399.273438 L 250.507813 399.273438 L 250.644531 399.269531 L 250.925781 399.269531 L 251.066406 399.265625 L 251.484375 399.265625 L 251.625 399.261719 L 251.902344 399.261719 L 252.042969 399.257813 L 252.320313 399.257813 L 252.460938 399.253906 L 252.738281 399.253906 L 252.878906 399.25 L 253.160156 399.25 L 253.296875 399.246094 L 253.4375 399.246094 L 253.578125 399.242188 L 253.855469 399.242188 L 253.996094 399.238281 L 254.277344 399.238281 L 254.414063 399.234375 L 254.695313 399.234375 L 254.832031 399.230469 L 254.972656 399.230469 L 255.113281 399.226563 L 255.390625 399.226563 L 255.53125 399.222656 L 255.8125 399.222656 L 255.949219 399.21875 L 256.089844 399.21875 L 256.230469 399.214844 L 256.507813 399.214844 L 256.648438 399.210938 L 256.789063 399.210938 L 256.929688 399.207031 L 257.066406 399.207031 L 257.207031 399.203125 L 257.488281 399.203125 L 257.625 399.199219 L 257.765625 399.199219 L 257.90625 399.195313 L 258.042969 399.195313 L 258.183594 399.191406 L 258.464844 399.191406 L 258.601563 399.1875 L 258.742188 399.1875 L 258.882813 399.183594 L 259.023438 399.183594 L 259.160156 399.179688 L 259.300781 399.179688 L 259.441406 399.175781 L 259.582031 399.175781 L 259.71875 399.171875 L 260 399.171875 L 260.140625 399.167969 L 260.277344 399.167969 L 260.417969 399.164063 L 260.558594 399.164063 L 260.695313 399.160156 L 260.835938 399.160156 L 260.976563 399.15625 L 261.117188 399.15625 L 261.253906 399.152344 L 261.394531 399.152344 L 261.535156 399.148438 L 261.675781 399.148438 L 261.8125 399.144531 L 261.953125 399.144531 L 262.09375 399.140625 L 262.234375 399.140625 L 262.371094 399.136719 L 262.511719 399.136719 L 262.792969 399.128906 L 262.929688 399.128906 L 263.070313 399.125 L 263.210938 399.125 L 263.351563 399.121094 L 263.488281 399.121094 L 263.628906 399.117188 L 263.769531 399.117188 L 263.90625 399.113281 L 264.046875 399.109375 L 264.1875 399.109375 L 264.328125 399.105469 L 264.464844 399.105469 L 264.605469 399.101563 L 264.746094 399.101563 L 264.886719 399.097656 L 265.023438 399.09375 L 265.164063 399.09375 L 265.304688 399.089844 L 265.445313 399.089844 L 265.582031 399.085938 L 265.722656 399.082031 L 265.863281 399.082031 L 266.003906 399.078125 L 266.140625 399.078125 L 266.421875 399.070313 L 266.5625 399.070313 L 266.699219 399.066406 L 266.839844 399.0625 L 266.980469 399.0625 L 267.117188 399.058594 L 267.257813 399.054688 L 267.398438 399.054688 L 267.539063 399.050781 L 267.675781 399.046875 L 267.816406 399.046875 L 268.097656 399.039063 L 268.234375 399.039063 L 268.515625 399.03125 L 268.65625 399.03125 L 268.792969 399.027344 L 268.933594 399.023438 L 269.074219 399.023438 L 269.214844 399.019531 L 269.351563 399.015625 L 269.492188 399.015625 L 269.632813 399.011719 L 269.769531 399.007813 L 269.910156 399.003906 L 270.050781 399.003906 L 270.191406 399 L 270.328125 398.996094 L 270.46875 398.992188 L 270.609375 398.992188 L 270.75 398.988281 L 270.886719 398.984375 L 271.027344 398.980469 L 271.167969 398.980469 L 271.308594 398.976563 L 271.445313 398.972656 L 271.726563 398.964844 L 271.867188 398.964844 L 272.003906 398.960938 L 272.425781 398.949219 L 272.5625 398.949219 L 272.84375 398.941406 L 272.980469 398.9375 L 273.121094 398.933594 L 273.261719 398.933594 L 273.402344 398.929688 L 273.539063 398.925781 L 273.960938 398.914063 L 274.097656 398.910156 L 274.238281 398.90625 L 274.378906 398.90625 L 274.519531 398.902344 L 274.65625 398.898438 L 275.078125 398.886719 L 275.214844 398.882813 L 275.496094 398.875 L 275.632813 398.871094 L 275.773438 398.871094 L 276.054688 398.863281 L 276.191406 398.859375 L 276.613281 398.847656 L 276.75 398.84375 L 277.171875 398.832031 L 277.308594 398.828125 L 277.730469 398.816406 L 277.867188 398.8125 L 278.289063 398.800781 L 278.425781 398.796875 L 278.707031 398.789063 L 278.84375 398.785156 L 279.125 398.777344 L 279.265625 398.769531 L 279.402344 398.765625 L 279.824219 398.753906 L 279.960938 398.75 L 280.382813 398.738281 L 280.519531 398.734375 L 280.660156 398.726563 L 280.941406 398.71875 L 281.078125 398.714844 L 281.359375 398.707031 L 281.496094 398.699219 L 281.917969 398.6875 L 282.054688 398.683594 L 282.195313 398.679688 L 282.335938 398.671875 L 282.476563 398.667969 L 282.613281 398.664063 L 282.753906 398.660156 L 282.894531 398.652344 L 283.035156 398.648438 L 283.171875 398.644531 L 283.3125 398.640625 L 283.453125 398.632813 L 283.59375 398.628906 L 283.730469 398.625 L 283.871094 398.621094 L 284.011719 398.613281 L 284.152344 398.609375 L 284.289063 398.605469 L 284.429688 398.597656 L 284.570313 398.59375 L 284.707031 398.589844 L 284.847656 398.582031 L 285.128906 398.574219 L 285.265625 398.566406 L 285.546875 398.558594 L 285.6875 398.550781 L 285.824219 398.546875 L 285.964844 398.539063 L 286.246094 398.53125 L 286.382813 398.523438 L 286.523438 398.519531 L 286.664063 398.511719 L 286.804688 398.507813 L 286.941406 398.5 L 287.082031 398.496094 L 287.222656 398.488281 L 287.363281 398.484375 L 287.5 398.476563 L 287.78125 398.46875 L 287.917969 398.460938 L 288.058594 398.453125 L 288.199219 398.449219 L 288.339844 398.441406 L 288.476563 398.4375 L 288.617188 398.429688 L 288.757813 398.425781 L 288.898438 398.417969 L 289.035156 398.414063 L 289.175781 398.40625 L 289.316406 398.402344 L 289.457031 398.394531 L 289.59375 398.386719 L 289.734375 398.382813 L 290.015625 398.367188 L 290.152344 398.363281 L 290.292969 398.355469 L 290.433594 398.351563 L 290.570313 398.34375 L 290.851563 398.328125 L 290.992188 398.324219 L 291.128906 398.316406 L 291.269531 398.308594 L 291.410156 398.304688 L 291.550781 398.296875 L 291.6875 398.289063 L 291.828125 398.28125 L 291.96875 398.277344 L 292.109375 398.269531 L 292.246094 398.261719 L 292.386719 398.253906 L 292.527344 398.25 L 292.667969 398.242188 L 292.804688 398.234375 L 293.085938 398.21875 L 293.226563 398.214844 L 293.363281 398.207031 L 293.644531 398.191406 L 293.78125 398.183594 L 294.203125 398.160156 L 294.339844 398.15625 L 294.761719 398.132813 L 294.898438 398.125 L 295.320313 398.101563 L 295.457031 398.09375 L 295.878906 398.070313 L 296.015625 398.0625 L 296.296875 398.046875 L 296.433594 398.039063 L 296.574219 398.03125 L 296.714844 398.019531 L 296.855469 398.011719 L 296.992188 398.003906 L 297.414063 397.980469 L 297.550781 397.972656 L 297.691406 397.964844 L 297.832031 397.953125 L 297.972656 397.945313 L 298.109375 397.9375 L 298.390625 397.921875 L 298.53125 397.910156 L 298.667969 397.902344 L 298.949219 397.886719 L 299.089844 397.875 L 299.226563 397.867188 L 299.507813 397.851563 L 299.644531 397.839844 L 299.925781 397.824219 L 300.066406 397.8125 L 300.203125 397.804688 L 300.34375 397.796875 L 300.484375 397.785156 L 300.625 397.777344 L 300.761719 397.765625 L 300.902344 397.757813 L 301.042969 397.746094 L 301.183594 397.738281 L 301.320313 397.730469 L 301.460938 397.71875 L 301.601563 397.710938 L 301.742188 397.699219 L 301.878906 397.691406 L 302.019531 397.679688 L 302.160156 397.671875 L 302.296875 397.660156 L 302.4375 397.652344 L 302.71875 397.628906 L 302.855469 397.621094 L 302.996094 397.609375 L 303.136719 397.601563 L 303.277344 397.589844 L 303.414063 397.578125 L 303.554688 397.570313 L 303.835938 397.546875 L 303.972656 397.539063 L 304.253906 397.515625 L 304.394531 397.507813 L 304.53125 397.496094 L 304.8125 397.472656 L 304.953125 397.464844 L 305.089844 397.453125 L 305.371094 397.429688 L 305.507813 397.417969 L 305.648438 397.40625 L 305.789063 397.398438 L 305.929688 397.386719 L 306.066406 397.375 L 306.488281 397.339844 L 306.625 397.328125 L 307.046875 397.292969 L 307.183594 397.28125 L 307.605469 397.246094 L 307.742188 397.234375 L 308.164063 397.199219 L 308.300781 397.1875 L 308.582031 397.164063 L 308.71875 397.148438 L 309.140625 397.113281 L 309.277344 397.101563 L 309.417969 397.085938 L 309.699219 397.0625 L 309.835938 397.050781 L 309.976563 397.035156 L 310.257813 397.011719 L 310.394531 396.996094 L 310.675781 396.972656 L 310.816406 396.957031 L 310.953125 396.945313 L 311.09375 396.933594 L 311.234375 396.917969 L 311.371094 396.90625 L 311.511719 396.890625 L 311.652344 396.878906 L 311.792969 396.863281 L 311.929688 396.851563 L 312.070313 396.835938 L 312.210938 396.824219 L 312.351563 396.808594 L 312.488281 396.796875 L 312.628906 396.78125 L 312.769531 396.769531 L 312.910156 396.753906 L 313.046875 396.738281 L 313.1875 396.726563 L 313.46875 396.695313 L 313.605469 396.683594 L 314.027344 396.636719 L 314.164063 396.625 L 314.445313 396.59375 L 314.582031 396.578125 L 314.722656 396.566406 L 315.003906 396.535156 L 315.140625 396.519531 L 315.5625 396.472656 L 315.699219 396.457031 L 316.121094 396.410156 L 316.257813 396.394531 L 316.679688 396.347656 L 316.816406 396.332031 L 317.097656 396.300781 L 317.234375 396.285156 L 317.515625 396.253906 L 317.65625 396.234375 L 317.792969 396.21875 L 318.074219 396.1875 L 318.214844 396.167969 L 318.351563 396.152344 L 318.632813 396.121094 L 318.773438 396.101563 L 318.910156 396.085938 L 319.050781 396.066406 L 319.332031 396.035156 L 319.46875 396.015625 L 319.609375 396 L 319.75 395.980469 L 319.890625 395.964844 L 320.027344 395.945313 L 320.167969 395.929688 L 320.308594 395.910156 L 320.445313 395.894531 L 320.585938 395.875 L 320.726563 395.859375 L 320.867188 395.839844 L 321.003906 395.820313 L 321.144531 395.804688 L 321.425781 395.765625 L 321.5625 395.75 L 321.984375 395.691406 L 322.121094 395.675781 L 322.542969 395.617188 L 322.679688 395.597656 L 322.820313 395.578125 L 322.960938 395.5625 L 323.097656 395.542969 L 323.519531 395.484375 L 323.65625 395.464844 L 324.078125 395.40625 L 324.214844 395.382813 L 324.636719 395.324219 L 324.773438 395.304688 L 324.914063 395.285156 L 325.054688 395.261719 L 325.195313 395.242188 L 325.332031 395.222656 L 325.472656 395.203125 L 325.613281 395.179688 L 325.753906 395.160156 L 325.890625 395.140625 L 326.03125 395.117188 L 326.171875 395.097656 L 326.308594 395.078125 L 326.449219 395.054688 L 326.589844 395.035156 L 326.730469 395.011719 L 326.867188 394.992188 L 327.007813 394.96875 L 327.148438 394.949219 L 327.289063 394.925781 L 327.425781 394.90625 L 327.707031 394.859375 L 327.847656 394.839844 L 327.984375 394.816406 L 328.125 394.792969 L 328.265625 394.773438 L 328.40625 394.75 L 328.542969 394.726563 L 328.683594 394.703125 L 328.824219 394.683594 L 328.960938 394.660156 L 329.382813 394.589844 L 329.519531 394.566406 L 329.941406 394.496094 L 330.078125 394.472656 L 330.5 394.402344 L 330.636719 394.378906 L 331.058594 394.308594 L 331.195313 394.28125 L 331.617188 394.210938 L 331.753906 394.183594 L 332.035156 394.136719 L 332.171875 394.109375 L 332.453125 394.0625 L 332.59375 394.035156 L 332.730469 394.011719 L 332.871094 393.984375 L 333.011719 393.960938 L 333.152344 393.933594 L 333.289063 393.910156 L 333.429688 393.882813 L 333.570313 393.859375 L 333.710938 393.832031 L 333.847656 393.804688 L 333.988281 393.78125 L 334.269531 393.726563 L 334.40625 393.699219 L 334.546875 393.675781 L 334.828125 393.621094 L 334.964844 393.59375 L 335.246094 393.539063 L 335.382813 393.515625 L 335.804688 393.433594 L 335.941406 393.40625 L 336.082031 393.378906 L 336.222656 393.347656 L 336.363281 393.320313 L 336.5 393.292969 L 336.921875 393.210938 L 337.058594 393.183594 L 337.199219 393.152344 L 337.480469 393.097656 L 337.617188 393.066406 L 337.898438 393.011719 L 338.035156 392.980469 L 338.175781 392.953125 L 338.316406 392.921875 L 338.457031 392.894531 L 338.59375 392.863281 L 338.734375 392.835938 L 338.875 392.804688 L 339.015625 392.777344 L 339.152344 392.746094 L 339.292969 392.714844 L 339.433594 392.6875 L 339.574219 392.65625 L 339.710938 392.625 L 339.851563 392.59375 L 339.992188 392.566406 L 340.132813 392.535156 L 340.269531 392.503906 L 340.691406 392.410156 L 340.828125 392.378906 L 341.109375 392.316406 L 341.246094 392.285156 L 341.667969 392.191406 L 341.804688 392.160156 L 342.085938 392.097656 L 342.226563 392.0625 L 342.363281 392.03125 L 342.644531 391.96875 L 342.785156 391.933594 L 342.921875 391.902344 L 343.0625 391.871094 L 343.203125 391.835938 L 343.34375 391.804688 L 343.480469 391.769531 L 343.621094 391.738281 L 343.761719 391.703125 L 343.898438 391.671875 L 344.179688 391.601563 L 344.320313 391.570313 L 344.457031 391.535156 L 344.597656 391.5 L 344.738281 391.46875 L 344.878906 391.433594 L 345.015625 391.398438 L 345.296875 391.328125 L 345.4375 391.296875 L 345.574219 391.261719 L 345.996094 391.15625 L 346.132813 391.121094 L 346.554688 391.015625 L 346.691406 390.976563 L 346.972656 390.90625 L 347.109375 390.871094 L 347.25 390.835938 L 347.390625 390.796875 L 347.53125 390.761719 L 347.667969 390.726563 L 347.808594 390.6875 L 347.949219 390.652344 L 348.089844 390.613281 L 348.226563 390.578125 L 348.367188 390.539063 L 348.507813 390.503906 L 348.648438 390.464844 L 348.785156 390.429688 L 348.925781 390.390625 L 349.066406 390.355469 L 349.207031 390.316406 L 349.34375 390.277344 L 349.484375 390.238281 L 349.625 390.203125 L 349.761719 390.164063 L 350.183594 390.046875 L 350.320313 390.007813 L 350.742188 389.890625 L 350.878906 389.851563 L 351.300781 389.734375 L 351.4375 389.695313 L 351.71875 389.617188 L 351.859375 389.574219 L 351.996094 389.535156 L 352.136719 389.496094 L 352.277344 389.453125 L 352.417969 389.414063 L 352.554688 389.375 L 352.695313 389.332031 L 352.835938 389.292969 L 352.972656 389.25 L 353.113281 389.210938 L 353.394531 389.125 L 353.53125 389.085938 L 353.8125 389 L 353.953125 388.960938 L 354.089844 388.917969 L 354.371094 388.832031 L 354.511719 388.792969 L 354.648438 388.75 L 355.070313 388.621094 L 355.207031 388.578125 L 355.628906 388.449219 L 355.765625 388.402344 L 356.046875 388.316406 L 356.183594 388.273438 L 356.324219 388.230469 L 356.464844 388.183594 L 356.605469 388.140625 L 356.742188 388.097656 L 356.882813 388.050781 L 357.023438 388.007813 L 357.164063 387.960938 L 357.300781 387.917969 L 357.441406 387.871094 L 357.582031 387.828125 L 357.722656 387.78125 L 357.859375 387.738281 L 358.140625 387.644531 L 358.28125 387.601563 L 358.417969 387.554688 L 358.699219 387.460938 L 358.835938 387.414063 L 358.976563 387.367188 L 359.117188 387.324219 L 359.257813 387.277344 L 359.394531 387.230469 L 359.816406 387.089844 L 359.953125 387.039063 L 360.375 386.898438 L 360.511719 386.851563 L 360.652344 386.800781 L 360.933594 386.707031 L 361.070313 386.65625 L 361.351563 386.5625 L 361.492188 386.511719 L 361.628906 386.464844 L 361.910156 386.363281 L 362.046875 386.316406 L 362.1875 386.265625 L 362.328125 386.21875 L 362.46875 386.167969 L 362.605469 386.117188 L 362.746094 386.066406 L 362.886719 386.019531 L 363.027344 385.96875 L 363.164063 385.917969 L 363.585938 385.765625 L 363.722656 385.714844 L 364.144531 385.5625 L 364.28125 385.511719 L 364.421875 385.460938 L 364.5625 385.40625 L 364.699219 385.355469 L 364.980469 385.253906 L 365.121094 385.199219 L 365.257813 385.148438 L 365.398438 385.097656 L 365.539063 385.042969 L 365.679688 384.992188 L 365.816406 384.9375 L 365.957031 384.886719 L 366.097656 384.832031 L 366.238281 384.78125 L 366.375 384.726563 L 366.515625 384.671875 L 366.65625 384.621094 L 366.796875 384.566406 L 366.933594 384.511719 L 367.214844 384.402344 L 367.355469 384.351563 L 367.492188 384.296875 L 367.773438 384.1875 L 367.910156 384.132813 L 368.332031 383.96875 L 368.46875 383.910156 L 368.890625 383.746094 L 369.027344 383.691406 L 369.167969 383.632813 L 369.449219 383.523438 L 369.585938 383.464844 L 369.726563 383.410156 L 369.867188 383.351563 L 370.007813 383.296875 L 370.144531 383.238281 L 370.285156 383.183594 L 370.425781 383.125 L 370.5625 383.070313 L 370.984375 382.894531 L 371.121094 382.839844 L 371.542969 382.664063 L 371.679688 382.605469 L 372.101563 382.429688 L 372.238281 382.371094 L 372.660156 382.195313 L 372.796875 382.136719 L 373.078125 382.019531 L 373.21875 381.957031 L 373.355469 381.898438 L 373.496094 381.839844 L 373.636719 381.777344 L 373.773438 381.71875 L 373.914063 381.660156 L 374.054688 381.597656 L 374.195313 381.539063 L 374.332031 381.476563 L 374.472656 381.417969 L 374.753906 381.292969 L 374.890625 381.234375 L 375.171875 381.109375 L 375.3125 381.050781 L 375.449219 380.988281 L 375.871094 380.800781 L 376.007813 380.738281 L 376.429688 380.550781 L 376.566406 380.488281 L 376.847656 380.363281 L 376.984375 380.300781 L 377.265625 380.175781 L 377.40625 380.109375 L 377.542969 380.046875 L 377.683594 379.984375 L 377.824219 379.917969 L 377.964844 379.855469 L 378.101563 379.792969 L 378.242188 379.726563 L 378.382813 379.664063 L 378.523438 379.597656 L 378.660156 379.535156 L 378.800781 379.46875 L 378.941406 379.40625 L 379.082031 379.339844 L 379.21875 379.273438 L 379.359375 379.210938 L 379.5 379.144531 L 379.636719 379.078125 L 379.777344 379.011719 L 379.917969 378.949219 L 380.058594 378.882813 L 380.195313 378.816406 L 380.617188 378.617188 L 380.753906 378.550781 L 381.175781 378.351563 L 381.3125 378.285156 L 381.453125 378.21875 L 381.59375 378.148438 L 381.734375 378.082031 L 381.871094 378.015625 L 382.011719 377.949219 L 382.152344 377.878906 L 382.292969 377.8125 L 382.429688 377.746094 L 382.570313 377.675781 L 382.710938 377.609375 L 382.847656 377.539063 L 382.988281 377.472656 L 383.128906 377.402344 L 383.269531 377.335938 L 383.40625 377.265625 L 383.546875 377.199219 L 383.828125 377.058594 L 383.964844 376.988281 L 384.105469 376.921875 L 384.386719 376.78125 L 384.523438 376.710938 L 384.664063 376.640625 L 384.804688 376.574219 L 384.945313 376.503906 L 385.082031 376.433594 L 385.363281 376.292969 L 385.5 376.222656 L 385.78125 376.082031 L 385.921875 376.007813 L 386.058594 375.9375 L 386.480469 375.726563 L 386.617188 375.652344 L 386.898438 375.511719 L 387.039063 375.4375 L 387.175781 375.367188 L 387.316406 375.296875 L 387.457031 375.222656 L 387.597656 375.152344 L 387.734375 375.078125 L 387.875 375.007813 L 388.15625 374.859375 L 388.292969 374.789063 L 388.433594 374.714844 L 388.574219 374.644531 L 388.710938 374.570313 L 388.992188 374.421875 L 389.132813 374.351563 L 389.269531 374.277344 L 389.691406 374.054688 L 389.828125 373.980469 L 390.25 373.757813 L 390.386719 373.683594 L 390.808594 373.460938 L 390.945313 373.386719 L 391.226563 373.238281 L 391.363281 373.160156 L 391.785156 372.9375 L 391.921875 372.859375 L 392.203125 372.710938 L 392.34375 372.632813 L 392.480469 372.558594 L 392.621094 372.480469 L 392.761719 372.40625 L 392.902344 372.328125 L 393.039063 372.253906 L 393.179688 372.175781 L 393.320313 372.101563 L 393.460938 372.023438 L 393.597656 371.949219 L 393.878906 371.792969 L 394.019531 371.71875 L 394.15625 371.640625 L 394.4375 371.484375 L 394.574219 371.410156 L 394.996094 371.175781 L 395.132813 371.097656 L 395.554688 370.863281 L 395.691406 370.785156 L 396.113281 370.550781 L 396.25 370.472656 L 396.671875 370.238281 L 396.808594 370.160156 L 396.949219 370.082031 L 397.089844 370 L 397.226563 369.921875 L 397.507813 369.765625 L 397.648438 369.683594 L 397.785156 369.605469 L 397.925781 369.527344 L 398.066406 369.445313 L 398.207031 369.367188 L 398.34375 369.289063 L 398.484375 369.207031 L 398.625 369.128906 L 398.765625 369.046875 L 398.902344 368.96875 L 399.042969 368.886719 L 399.183594 368.808594 L 399.324219 368.726563 L 399.460938 368.648438 L 399.742188 368.484375 L 399.882813 368.40625 L 400.019531 368.324219 L 400.160156 368.246094 L 400.300781 368.164063 L 400.4375 368.082031 L 400.578125 368 L 400.71875 367.921875 L 400.859375 367.839844 L 400.996094 367.757813 L 401.136719 367.675781 L 401.277344 367.597656 L 401.417969 367.515625 L 401.554688 367.433594 L 401.976563 367.1875 L 402.113281 367.105469 L 402.535156 366.859375 L 402.671875 366.777344 L 403.09375 366.53125 L 403.230469 366.449219 L 403.511719 366.285156 L 403.648438 366.203125 L 404.070313 365.957031 L 404.207031 365.871094 L 404.628906 365.625 L 404.765625 365.542969 L 404.90625 365.457031 L 405.1875 365.292969 L 405.324219 365.210938 L 405.464844 365.125 L 405.746094 364.960938 L 405.882813 364.875 L 406.164063 364.710938 L 406.300781 364.625 L 406.441406 364.542969 L 406.582031 364.457031 L 406.722656 364.375 L 406.859375 364.289063 L 407.140625 364.125 L 407.28125 364.039063 L 407.417969 363.957031 L 407.558594 363.871094 L 407.699219 363.789063 L 407.839844 363.703125 L 407.976563 363.621094 L 408.257813 363.449219 L 408.398438 363.367188 L 408.535156 363.28125 L 408.675781 363.199219 L 408.957031 363.027344 L 409.09375 362.945313 L 409.234375 362.859375 L 409.375 362.777344 L 409.511719 362.691406 L 409.652344 362.605469 L 409.792969 362.523438 L 409.933594 362.4375 L 410.070313 362.351563 L 410.210938 362.265625 L 410.351563 362.183594 L 410.492188 362.097656 L 410.628906 362.011719 L 410.769531 361.929688 L 411.050781 361.757813 L 411.1875 361.671875 L 411.328125 361.589844 L 411.609375 361.417969 L 411.746094 361.332031 L 411.886719 361.246094 L 412.027344 361.164063 L 412.164063 361.078125 L 412.585938 360.820313 L 412.722656 360.738281 L 413.144531 360.480469 L 413.28125 360.394531 L 413.5625 360.222656 L 413.703125 360.140625 L 413.839844 360.054688 L 414.261719 359.796875 L 414.398438 359.710938 L 414.820313 359.453125 L 414.957031 359.371094 L 415.238281 359.199219 L 415.375 359.113281 L 415.796875 358.855469 L 415.933594 358.769531 L 416.355469 358.511719 L 416.492188 358.425781 L 416.632813 358.34375 L 416.914063 358.171875 L 417.050781 358.085938 L 417.472656 357.828125 L 417.609375 357.742188 L 417.890625 357.570313 L 418.027344 357.484375 L 418.449219 357.226563 L 418.585938 357.144531 L 419.007813 356.886719 L 419.144531 356.800781 L 419.566406 356.542969 L 419.703125 356.457031 L 419.984375 356.285156 L 420.125 356.203125 L 420.261719 356.117188 L 420.683594 355.859375 L 420.820313 355.773438 L 421.101563 355.601563 L 421.238281 355.519531 L 421.660156 355.261719 L 421.796875 355.175781 L 421.9375 355.089844 L 422.078125 355.007813 L 422.21875 354.921875 L 422.355469 354.835938 L 422.636719 354.664063 L 422.777344 354.582031 L 422.914063 354.496094 L 423.195313 354.324219 L 423.335938 354.242188 L 423.472656 354.15625 L 423.753906 353.984375 L 423.894531 353.902344 L 424.03125 353.816406 L 424.171875 353.730469 L 424.3125 353.648438 L 424.449219 353.5625 L 424.589844 353.476563 L 424.730469 353.394531 L 424.871094 353.308594 L 425.007813 353.222656 L 425.148438 353.140625 L 425.289063 353.054688 L 425.429688 352.972656 L 425.566406 352.886719 L 425.707031 352.800781 L 425.847656 352.71875 L 425.988281 352.632813 L 426.125 352.550781 L 426.265625 352.464844 L 426.40625 352.382813 L 426.546875 352.296875 L 426.683594 352.214844 L 426.824219 352.128906 L 426.964844 352.046875 L 427.101563 351.960938 L 427.242188 351.878906 L 427.382813 351.792969 L 427.523438 351.710938 L 427.660156 351.628906 L 427.800781 351.542969 L 428.082031 351.378906 L 428.21875 351.292969 L 428.5 351.128906 L 428.640625 351.042969 L 428.777344 350.960938 L 429.058594 350.796875 L 429.199219 350.710938 L 429.335938 350.628906 L 429.757813 350.382813 L 429.894531 350.300781 L 430.175781 350.136719 L 430.3125 350.050781 L 430.734375 349.804688 L 430.871094 349.722656 L 431.152344 349.558594 L 431.292969 349.480469 L 431.429688 349.398438 L 431.851563 349.152344 L 431.988281 349.070313 L 432.128906 348.988281 L 432.269531 348.910156 L 432.410156 348.828125 L 432.546875 348.746094 L 432.6875 348.664063 L 432.828125 348.585938 L 432.964844 348.503906 L 433.105469 348.421875 L 433.246094 348.34375 L 433.386719 348.261719 L 433.523438 348.183594 L 433.804688 348.019531 L 433.945313 347.941406 L 434.082031 347.863281 L 434.222656 347.78125 L 434.363281 347.703125 L 434.503906 347.621094 L 434.640625 347.542969 L 434.78125 347.460938 L 435.0625 347.304688 L 435.199219 347.226563 L 435.339844 347.144531 L 435.621094 346.988281 L 435.757813 346.910156 L 435.898438 346.832031 L 436.039063 346.75 L 436.175781 346.671875 L 436.597656 346.4375 L 436.734375 346.359375 L 437.015625 346.203125 L 437.15625 346.128906 L 437.292969 346.050781 L 437.714844 345.816406 L 437.851563 345.742188 L 438.132813 345.585938 L 438.273438 345.511719 L 438.410156 345.433594 L 438.550781 345.355469 L 438.691406 345.28125 L 438.828125 345.203125 L 438.96875 345.128906 L 439.109375 345.050781 L 439.25 344.976563 L 439.386719 344.898438 L 439.808594 344.675781 L 439.945313 344.597656 L 440.367188 344.375 L 440.503906 344.300781 L 440.644531 344.222656 L 440.925781 344.074219 L 441.0625 344 L 441.203125 343.925781 L 441.34375 343.855469 L 441.484375 343.78125 L 441.621094 343.707031 L 441.902344 343.558594 L 442.039063 343.488281 L 442.320313 343.339844 L 442.460938 343.269531 L 442.597656 343.195313 L 442.738281 343.121094 L 442.878906 343.050781 L 443.019531 342.976563 L 443.15625 342.90625 L 443.296875 342.835938 L 443.4375 342.761719 L 443.578125 342.691406 L 443.714844 342.621094 L 443.855469 342.546875 L 444.136719 342.40625 L 444.273438 342.335938 L 444.695313 342.125 L 444.832031 342.054688 L 445.113281 341.914063 L 445.25 341.84375 L 445.390625 341.773438 L 445.53125 341.707031 L 445.671875 341.636719 L 445.808594 341.566406 L 445.949219 341.5 L 446.089844 341.429688 L 446.230469 341.363281 L 446.367188 341.292969 L 446.507813 341.226563 L 446.648438 341.15625 L 446.789063 341.089844 L 446.925781 341.019531 L 447.347656 340.820313 L 447.484375 340.753906 L 447.625 340.683594 L 447.765625 340.617188 L 447.902344 340.550781 L 448.042969 340.484375 L 448.183594 340.421875 L 448.324219 340.355469 L 448.460938 340.289063 L 448.742188 340.15625 L 448.882813 340.09375 L 449.019531 340.027344 L 449.160156 339.960938 L 449.300781 339.898438 L 449.441406 339.832031 L 449.578125 339.769531 L 449.71875 339.703125 L 450 339.578125 L 450.136719 339.511719 L 450.558594 339.324219 L 450.695313 339.261719 L 450.976563 339.136719 L 451.113281 339.074219 L 451.535156 338.886719 L 451.671875 338.828125 L 451.953125 338.703125 L 452.09375 338.644531 L 452.230469 338.582031 L 452.371094 338.523438 L 452.511719 338.460938 L 452.652344 338.402344 L 452.789063 338.34375 L 452.929688 338.285156 L 453.070313 338.222656 L 453.210938 338.164063 L 453.347656 338.105469 L 453.628906 337.988281 L 453.765625 337.929688 L 454.046875 337.8125 L 454.1875 337.757813 L 454.324219 337.699219 L 454.605469 337.582031 L 454.746094 337.527344 L 454.882813 337.46875 L 455.164063 337.359375 L 455.304688 337.300781 L 455.441406 337.246094 L 455.582031 337.191406 L 455.722656 337.132813 L 455.863281 337.078125 L 456 337.023438 L 456.421875 336.859375 L 456.558594 336.804688 L 456.699219 336.753906 L 456.839844 336.699219 L 456.976563 336.644531 L 457.117188 336.59375 L 457.257813 336.539063 L 457.398438 336.488281 L 457.535156 336.433594 L 457.675781 336.382813 L 457.816406 336.328125 L 457.957031 336.277344 L 458.09375 336.226563 L 458.515625 336.074219 L 458.652344 336.023438 L 459.074219 335.871094 L 459.210938 335.820313 L 459.351563 335.773438 L 459.492188 335.722656 L 459.628906 335.671875 L 459.769531 335.625 L 459.910156 335.574219 L 460.050781 335.527344 L 460.1875 335.480469 L 460.328125 335.429688 L 460.609375 335.335938 L 460.746094 335.289063 L 461.167969 335.148438 L 461.304688 335.101563 L 461.445313 335.054688 L 461.585938 335.011719 L 461.726563 334.964844 L 461.863281 334.917969 L 462.003906 334.875 L 462.144531 334.828125 L 462.285156 334.785156 L 462.421875 334.742188 L 462.5625 334.695313 L 462.703125 334.652344 L 462.839844 334.609375 L 463.261719 334.480469 L 463.398438 334.4375 L 463.539063 334.394531 L 463.679688 334.355469 L 463.820313 334.3125 L 463.957031 334.269531 L 464.097656 334.230469 L 464.238281 334.1875 L 464.378906 334.148438 L 464.515625 334.105469 L 464.9375 333.988281 L 465.074219 333.945313 L 465.496094 333.828125 L 465.632813 333.792969 L 465.914063 333.714844 L 466.050781 333.675781 L 466.191406 333.640625 L 466.332031 333.601563 L 466.472656 333.566406 L 466.609375 333.527344 L 467.03125 333.421875 L 467.167969 333.386719 L 467.589844 333.28125 L 467.726563 333.246094 L 468.007813 333.175781 L 468.148438 333.144531 L 468.285156 333.109375 L 468.425781 333.078125 L 468.566406 333.042969 L 468.703125 333.011719 L 468.84375 332.976563 L 469.125 332.914063 L 469.261719 332.882813 L 469.683594 332.789063 L 469.820313 332.757813 L 469.960938 332.726563 L 470.101563 332.699219 L 470.242188 332.667969 L 470.378906 332.640625 L 470.519531 332.609375 L 470.660156 332.582031 L 470.800781 332.550781 L 470.9375 332.523438 L 471.359375 332.441406 L 471.496094 332.414063 L 471.777344 332.359375 L 471.914063 332.332031 L 472.054688 332.304688 L 472.195313 332.28125 L 472.335938 332.253906 L 472.472656 332.230469 L 472.613281 332.203125 L 472.894531 332.15625 L 473.03125 332.132813 L 473.171875 332.105469 L 473.453125 332.058594 L 473.589844 332.035156 L 473.730469 332.015625 L 474.011719 331.96875 L 474.148438 331.945313 L 474.289063 331.925781 L 474.429688 331.902344 L 474.566406 331.882813 L 474.707031 331.863281 L 474.847656 331.839844 L 474.988281 331.820313 L 475.125 331.800781 L 475.546875 331.742188 L 475.683594 331.722656 L 475.824219 331.707031 L 476.105469 331.667969 L 476.242188 331.652344 L 476.382813 331.632813 L 476.664063 331.601563 L 476.800781 331.582031 L 477.222656 331.535156 L 477.359375 331.519531 L 477.640625 331.488281 L 477.777344 331.476563 L 478.058594 331.445313 L 478.199219 331.433594 L 478.335938 331.417969 L 478.617188 331.394531 L 478.757813 331.378906 L 478.894531 331.367188 L 479.316406 331.332031 L 479.453125 331.320313 L 479.59375 331.3125 L 479.875 331.289063 L 480.011719 331.28125 L 480.152344 331.269531 L 480.292969 331.261719 L 480.429688 331.253906 L 480.570313 331.242188 L 480.851563 331.226563 L 480.988281 331.21875 L 481.410156 331.195313 L 481.546875 331.191406 L 481.828125 331.175781 L 481.96875 331.171875 L 482.105469 331.164063 L 482.386719 331.15625 L 482.527344 331.148438 L 482.664063 331.144531 L 483.085938 331.132813 L 483.222656 331.128906 L 483.363281 331.128906 L 483.503906 331.125 L 483.640625 331.121094 L 483.78125 331.121094 L 483.921875 331.117188 L 484.199219 331.117188 L 484.339844 331.113281 L 485.039063 331.113281 L 485.179688 331.117188 L 485.457031 331.117188 L 485.597656 331.121094 L 485.738281 331.121094 L 485.875 331.125 L 486.015625 331.125 L 486.15625 331.128906 L 486.292969 331.132813 L 486.714844 331.144531 L 486.851563 331.148438 L 487.132813 331.15625 L 487.273438 331.164063 L 487.410156 331.167969 L 487.550781 331.171875 L 487.832031 331.1875 L 487.96875 331.191406 L 488.390625 331.214844 L 488.527344 331.222656 L 488.949219 331.246094 L 489.085938 331.257813 L 489.367188 331.273438 L 489.503906 331.285156 L 489.644531 331.292969 L 489.925781 331.316406 L 490.0625 331.328125 L 490.203125 331.339844 L 490.34375 331.347656 L 490.484375 331.359375 L 490.621094 331.375 L 491.042969 331.410156 L 491.179688 331.425781 L 491.320313 331.4375 L 491.460938 331.453125 L 491.601563 331.464844 L 491.738281 331.480469 L 492.160156 331.527344 L 492.296875 331.542969 L 492.578125 331.574219 L 492.714844 331.589844 L 492.855469 331.605469 L 492.996094 331.625 L 493.136719 331.640625 L 493.273438 331.660156 L 493.414063 331.675781 L 493.695313 331.714844 L 493.832031 331.730469 L 494.253906 331.789063 L 494.390625 331.808594 L 494.53125 331.828125 L 494.671875 331.851563 L 494.8125 331.871094 L 494.949219 331.890625 L 495.089844 331.914063 L 495.230469 331.933594 L 495.367188 331.957031 L 495.507813 331.980469 L 495.648438 332 L 495.789063 332.023438 L 495.925781 332.046875 L 496.347656 332.117188 L 496.484375 332.140625 L 496.625 332.164063 L 496.765625 332.191406 L 496.90625 332.214844 L 497.042969 332.242188 L 497.183594 332.265625 L 497.324219 332.292969 L 497.464844 332.316406 L 497.601563 332.34375 L 498.023438 332.425781 L 498.160156 332.453125 L 498.441406 332.507813 L 498.578125 332.535156 L 498.71875 332.5625 L 498.859375 332.59375 L 499 332.621094 L 499.136719 332.652344 L 499.277344 332.679688 L 499.558594 332.742188 L 499.695313 332.769531 L 500.117188 332.863281 L 500.253906 332.894531 L 500.394531 332.925781 L 500.535156 332.960938 L 500.675781 332.992188 L 500.8125 333.023438 L 500.953125 333.058594 L 501.09375 333.089844 L 501.230469 333.125 L 501.371094 333.15625 L 501.652344 333.226563 L 501.789063 333.257813 L 502.210938 333.363281 L 502.347656 333.398438 L 502.488281 333.4375 L 502.769531 333.507813 L 502.90625 333.542969 L 503.046875 333.582031 L 503.1875 333.617188 L 503.328125 333.65625 L 503.464844 333.691406 L 503.886719 333.808594 L 504.023438 333.847656 L 504.304688 333.925781 L 504.441406 333.964844 L 504.863281 334.082031 L 505 334.125 L 505.28125 334.203125 L 505.421875 334.246094 L 505.558594 334.289063 L 505.699219 334.328125 L 505.980469 334.414063 L 506.117188 334.457031 L 506.539063 334.585938 L 506.675781 334.628906 L 506.957031 334.714844 L 507.09375 334.757813 L 507.234375 334.804688 L 507.375 334.847656 L 507.515625 334.894531 L 507.652344 334.9375 L 507.933594 335.03125 L 508.074219 335.074219 L 508.210938 335.121094 L 508.632813 335.261719 L 508.769531 335.308594 L 509.191406 335.449219 L 509.328125 335.5 L 509.46875 335.546875 L 509.609375 335.597656 L 509.75 335.644531 L 509.886719 335.695313 L 510.027344 335.742188 L 510.167969 335.792969 L 510.304688 335.84375 L 510.445313 335.890625 L 510.726563 335.992188 L 510.863281 336.042969 L 511.285156 336.195313 L 511.421875 336.246094 L 511.5625 336.300781 L 511.84375 336.402344 L 511.980469 336.457031 L 512.121094 336.507813 L 512.261719 336.5625 L 512.402344 336.613281 L 512.539063 336.667969 L 512.679688 336.722656 L 512.820313 336.773438 L 512.960938 336.828125 L 513.097656 336.882813 L 513.378906 336.992188 L 513.515625 337.046875 L 513.796875 337.15625 L 513.9375 337.214844 L 514.074219 337.269531 L 514.214844 337.324219 L 514.355469 337.382813 L 514.496094 337.4375 L 514.632813 337.492188 L 514.914063 337.609375 L 515.054688 337.664063 L 515.191406 337.722656 L 515.472656 337.839844 L 515.613281 337.894531 L 515.75 337.953125 L 516.03125 338.070313 L 516.167969 338.128906 L 516.308594 338.191406 L 516.589844 338.308594 L 516.726563 338.367188 L 516.867188 338.429688 L 517.148438 338.546875 L 517.285156 338.609375 L 517.425781 338.667969 L 517.707031 338.792969 L 517.84375 338.851563 L 518.265625 339.039063 L 518.402344 339.101563 L 518.824219 339.289063 L 518.960938 339.351563 L 519.242188 339.476563 L 519.378906 339.539063 L 519.519531 339.605469 L 519.800781 339.730469 L 519.9375 339.796875 L 520.078125 339.859375 L 520.21875 339.925781 L 520.359375 339.988281 L 520.496094 340.054688 L 520.636719 340.121094 L 520.777344 340.183594 L 520.917969 340.25 L 521.054688 340.316406 L 521.476563 340.515625 L 521.613281 340.582031 L 521.894531 340.714844 L 522.03125 340.78125 L 522.453125 340.980469 L 522.589844 341.050781 L 522.871094 341.183594 L 523.011719 341.253906 L 523.148438 341.320313 L 523.289063 341.390625 L 523.429688 341.457031 L 523.570313 341.527344 L 523.707031 341.597656 L 523.847656 341.664063 L 524.128906 341.804688 L 524.265625 341.875 L 524.40625 341.945313 L 524.546875 342.011719 L 524.6875 342.082031 L 524.824219 342.152344 L 525.105469 342.292969 L 525.242188 342.363281 L 525.382813 342.4375 L 525.664063 342.578125 L 525.800781 342.648438 L 525.941406 342.722656 L 526.222656 342.863281 L 526.359375 342.9375 L 526.5 343.007813 L 526.640625 343.082031 L 526.78125 343.152344 L 526.917969 343.226563 L 527.058594 343.296875 L 527.339844 343.445313 L 527.476563 343.515625 L 527.757813 343.664063 L 527.894531 343.738281 L 528.035156 343.8125 L 528.175781 343.882813 L 528.316406 343.957031 L 528.453125 344.03125 L 528.875 344.253906 L 529.011719 344.332031 L 529.433594 344.554688 L 529.570313 344.628906 L 529.710938 344.707031 L 529.992188 344.855469 L 530.128906 344.933594 L 530.410156 345.082031 L 530.550781 345.160156 L 530.6875 345.234375 L 530.96875 345.390625 L 531.105469 345.464844 L 531.246094 345.542969 L 531.386719 345.617188 L 531.527344 345.695313 L 531.664063 345.773438 L 531.804688 345.851563 L 531.945313 345.925781 L 532.085938 346.003906 L 532.222656 346.082031 L 532.644531 346.316406 L 532.78125 346.394531 L 533.203125 346.628906 L 533.339844 346.707031 L 533.761719 346.941406 L 533.898438 347.019531 L 534.039063 347.101563 L 534.179688 347.179688 L 534.316406 347.257813 L 534.457031 347.335938 L 534.597656 347.417969 L 534.738281 347.496094 L 534.875 347.574219 L 535.015625 347.65625 L 535.15625 347.734375 L 535.296875 347.816406 L 535.433594 347.894531 L 535.574219 347.976563 L 535.714844 348.054688 L 535.855469 348.136719 L 535.992188 348.214844 L 536.132813 348.296875 L 536.273438 348.375 L 536.414063 348.457031 L 536.550781 348.539063 L 536.691406 348.617188 L 536.832031 348.699219 L 536.96875 348.78125 L 537.109375 348.863281 L 537.25 348.941406 L 537.390625 349.023438 L 537.527344 349.105469 L 537.808594 349.269531 L 537.949219 349.347656 L 538.085938 349.429688 L 538.507813 349.675781 L 538.644531 349.757813 L 539.066406 350.003906 L 539.203125 350.085938 L 539.484375 350.25 L 539.625 350.335938 L 539.761719 350.417969 L 540.042969 350.582031 L 540.179688 350.664063 L 540.320313 350.746094 L 540.460938 350.832031 L 540.601563 350.914063 L 540.738281 350.996094 L 540.878906 351.078125 L 541.019531 351.164063 L 541.160156 351.246094 L 541.296875 351.328125 L 541.4375 351.414063 L 541.71875 351.578125 L 541.855469 351.664063 L 542.136719 351.828125 L 542.277344 351.914063 L 542.414063 351.996094 L 542.554688 352.082031 L 542.695313 352.164063 L 542.832031 352.25 L 542.972656 352.332031 L 543.113281 352.417969 L 543.253906 352.5 L 543.390625 352.585938 L 543.53125 352.667969 L 543.671875 352.753906 L 543.8125 352.835938 L 543.949219 352.921875 L 544.089844 353.007813 L 544.230469 353.089844 L 544.371094 353.175781 L 544.507813 353.257813 L 544.789063 353.429688 L 544.929688 353.511719 L 545.066406 353.597656 L 545.207031 353.683594 L 545.347656 353.765625 L 545.488281 353.851563 L 545.625 353.9375 L 545.765625 354.023438 L 545.90625 354.105469 L 546.042969 354.191406 L 546.183594 354.277344 L 546.324219 354.359375 L 546.464844 354.445313 L 546.601563 354.53125 L 546.882813 354.703125 L 547.023438 354.785156 L 547.160156 354.871094 L 547.582031 355.128906 L 547.71875 355.210938 L 548.140625 355.46875 L 548.277344 355.554688 L 548.417969 355.640625 L 548.558594 355.722656 L 548.695313 355.808594 L 549.117188 356.066406 L 549.253906 356.152344 L 549.675781 356.410156 L 549.8125 356.492188 L 550.234375 356.75 L 550.371094 356.835938 L 550.792969 357.09375 L 550.929688 357.179688 L 551.351563 357.4375 L 551.488281 357.519531 L 551.769531 357.691406 L 551.90625 357.777344 L 552.328125 358.035156 L 552.464844 358.121094 L 552.886719 358.378906 L 553.023438 358.464844 L 553.164063 358.550781 L 553.304688 358.632813 L 553.445313 358.71875 L 553.582031 358.804688 L 554.003906 359.0625 L 554.140625 359.148438 L 554.5625 359.40625 L 554.699219 359.492188 L 554.839844 359.578125 L 554.980469 359.660156 L 555.117188 359.746094 L 555.539063 360.003906 L 555.675781 360.089844 L 555.957031 360.261719 L 556.097656 360.34375 L 556.234375 360.429688 L 556.65625 360.6875 L 556.792969 360.773438 L 556.933594 360.859375 L 557.074219 360.941406 L 557.214844 361.027344 L 557.351563 361.113281 L 557.632813 361.285156 L 557.769531 361.367188 L 558.191406 361.625 L 558.328125 361.707031 L 558.75 361.964844 L 558.886719 362.046875 L 559.308594 362.304688 L 559.445313 362.386719 L 559.726563 362.558594 L 559.867188 362.640625 L 560.003906 362.726563 L 560.144531 362.8125 L 560.285156 362.894531 L 560.425781 362.980469 L 560.5625 363.066406 L 560.703125 363.148438 L 560.84375 363.234375 L 560.980469 363.316406 L 561.121094 363.402344 L 561.261719 363.484375 L 561.402344 363.570313 L 561.539063 363.65625 L 561.679688 363.738281 L 561.820313 363.824219 L 561.960938 363.90625 L 562.097656 363.992188 L 562.238281 364.074219 L 562.378906 364.160156 L 562.519531 364.242188 L 562.65625 364.324219 L 562.796875 364.410156 L 562.9375 364.492188 L 563.078125 364.578125 L 563.214844 364.660156 L 563.355469 364.742188 L 563.496094 364.828125 L 563.632813 364.910156 L 563.773438 364.996094 L 564.054688 365.160156 L 564.191406 365.242188 L 564.332031 365.328125 L 564.613281 365.492188 L 564.75 365.578125 L 565.171875 365.824219 L 565.308594 365.90625 L 565.449219 365.992188 L 565.730469 366.15625 L 565.867188 366.238281 L 566.289063 366.484375 L 566.425781 366.566406 L 566.707031 366.730469 L 566.84375 366.8125 L 567.265625 367.058594 L 567.402344 367.140625 L 567.824219 367.386719 L 567.960938 367.46875 L 568.101563 367.546875 L 568.382813 367.710938 L 568.519531 367.792969 L 568.660156 367.875 L 568.800781 367.953125 L 568.941406 368.035156 L 569.078125 368.117188 L 569.21875 368.199219 L 569.359375 368.277344 L 569.496094 368.359375 L 569.636719 368.4375 L 569.917969 368.601563 L 570.054688 368.679688 L 570.195313 368.761719 L 570.335938 368.839844 L 570.476563 368.921875 L 570.613281 369 L 570.753906 369.082031 L 570.894531 369.160156 L 571.035156 369.242188 L 571.171875 369.320313 L 571.3125 369.402344 L 571.59375 369.558594 L 571.730469 369.640625 L 572.152344 369.875 L 572.289063 369.957031 L 572.570313 370.113281 L 572.707031 370.191406 L 572.847656 370.269531 L 572.988281 370.351563 L 573.128906 370.429688 L 573.265625 370.507813 L 573.6875 370.742188 L 573.824219 370.820313 L 574.246094 371.054688 L 574.382813 371.132813 L 574.523438 371.207031 L 574.804688 371.363281 L 574.941406 371.441406 L 575.082031 371.519531 L 575.222656 371.59375 L 575.359375 371.671875 L 575.640625 371.828125 L 575.78125 371.902344 L 575.917969 371.980469 L 576.058594 372.054688 L 576.339844 372.210938 L 576.476563 372.285156 L 576.617188 372.363281 L 576.757813 372.4375 L 576.898438 372.515625 L 577.035156 372.589844 L 577.175781 372.664063 L 577.316406 372.742188 L 577.457031 372.816406 L 577.59375 372.890625 L 577.734375 372.96875 L 578.015625 373.117188 L 578.152344 373.195313 L 578.433594 373.34375 L 578.570313 373.417969 L 578.992188 373.640625 L 579.128906 373.714844 L 579.550781 373.9375 L 579.6875 374.011719 L 580.109375 374.234375 L 580.246094 374.308594 L 580.386719 374.382813 L 580.527344 374.453125 L 580.667969 374.527344 L 580.804688 374.601563 L 580.945313 374.671875 L 581.226563 374.820313 L 581.363281 374.890625 L 581.503906 374.964844 L 581.644531 375.035156 L 581.78125 375.109375 L 581.921875 375.179688 L 582.0625 375.253906 L 582.203125 375.324219 L 582.339844 375.398438 L 582.621094 375.539063 L 582.761719 375.613281 L 582.898438 375.683594 L 583.039063 375.753906 L 583.179688 375.828125 L 583.320313 375.898438 L 583.457031 375.96875 L 583.878906 376.179688 L 584.015625 376.25 L 584.296875 376.390625 L 584.433594 376.460938 L 584.855469 376.671875 L 584.992188 376.742188 L 585.132813 376.8125 L 585.273438 376.878906 L 585.414063 376.949219 L 585.550781 377.019531 L 585.691406 377.089844 L 585.832031 377.15625 L 585.972656 377.226563 L 586.109375 377.296875 L 586.25 377.363281 L 586.390625 377.433594 L 586.53125 377.5 L 586.667969 377.570313 L 586.808594 377.636719 L 586.949219 377.707031 L 587.089844 377.773438 L 587.226563 377.839844 L 587.367188 377.910156 L 587.507813 377.976563 L 587.644531 378.042969 L 587.785156 378.109375 L 587.925781 378.179688 L 588.066406 378.246094 L 588.203125 378.3125 L 588.625 378.511719 L 588.761719 378.578125 L 589.183594 378.777344 L 589.320313 378.84375 L 589.601563 378.976563 L 589.742188 379.039063 L 589.878906 379.105469 L 590.160156 379.238281 L 590.296875 379.300781 L 590.578125 379.433594 L 590.71875 379.496094 L 590.855469 379.5625 L 590.996094 379.625 L 591.136719 379.691406 L 591.277344 379.753906 L 591.414063 379.820313 L 591.695313 379.945313 L 591.835938 380.011719 L 591.972656 380.074219 L 592.253906 380.199219 L 592.394531 380.265625 L 592.53125 380.328125 L 592.953125 380.515625 L 593.089844 380.578125 L 593.371094 380.703125 L 593.507813 380.765625 L 593.929688 380.953125 L 594.066406 381.011719 L 594.488281 381.199219 L 594.625 381.257813 L 594.90625 381.382813 L 595.046875 381.441406 L 595.183594 381.503906 L 595.324219 381.5625 L 595.464844 381.625 L 595.605469 381.683594 L 595.742188 381.742188 L 595.882813 381.804688 L 596.023438 381.863281 L 596.160156 381.921875 L 596.300781 381.984375 L 596.582031 382.101563 L 596.71875 382.160156 L 596.859375 382.222656 L 597.140625 382.339844 L 597.277344 382.398438 L 597.699219 382.574219 L 597.835938 382.632813 L 597.976563 382.6875 L 598.257813 382.804688 L 598.394531 382.863281 L 598.535156 382.921875 L 598.675781 382.976563 L 598.816406 383.035156 L 598.953125 383.09375 L 599.09375 383.148438 L 599.234375 383.207031 L 599.371094 383.261719 L 599.511719 383.320313 L 599.652344 383.375 L 599.792969 383.433594 L 599.929688 383.488281 L 600.070313 383.546875 L 600.351563 383.65625 L 600.488281 383.714844 L 600.910156 383.878906 L 601.046875 383.933594 L 601.1875 383.992188 L 601.46875 384.101563 L 601.605469 384.15625 L 602.027344 384.320313 L 602.164063 384.371094 L 602.445313 384.480469 L 602.582031 384.535156 L 602.722656 384.589844 L 602.863281 384.640625 L 603.003906 384.695313 L 603.140625 384.75 L 603.28125 384.800781 L 603.421875 384.855469 L 603.5625 384.90625 L 603.699219 384.960938 L 603.839844 385.011719 L 603.980469 385.066406 L 604.121094 385.117188 L 604.257813 385.171875 L 604.539063 385.273438 L 604.679688 385.328125 L 604.816406 385.378906 L 605.097656 385.480469 L 605.234375 385.53125 L 605.375 385.582031 L 605.515625 385.636719 L 605.65625 385.6875 L 605.792969 385.738281 L 606.074219 385.839844 L 606.214844 385.886719 L 606.351563 385.9375 L 606.773438 386.089844 L 606.910156 386.140625 L 607.050781 386.1875 L 607.332031 386.289063 L 607.46875 386.335938 L 607.609375 386.386719 L 607.75 386.433594 L 607.890625 386.484375 L 608.027344 386.53125 L 608.167969 386.582031 L 608.308594 386.628906 L 608.445313 386.679688 L 608.726563 386.773438 L 608.867188 386.824219 L 609.003906 386.871094 L 609.425781 387.011719 L 609.5625 387.058594 L 609.703125 387.109375 L 609.984375 387.203125 L 610.121094 387.25 L 610.402344 387.34375 L 610.542969 387.386719 L 610.679688 387.433594 L 610.960938 387.527344 L 611.097656 387.574219 L 611.238281 387.617188 L 611.519531 387.710938 L 611.65625 387.753906 L 611.9375 387.847656 L 612.078125 387.890625 L 612.214844 387.9375 L 612.355469 387.980469 L 612.496094 388.027344 L 612.636719 388.070313 L 612.773438 388.113281 L 612.914063 388.160156 L 613.195313 388.246094 L 613.332031 388.292969 L 613.753906 388.421875 L 613.890625 388.464844 L 614.171875 388.550781 L 614.308594 388.59375 L 614.730469 388.722656 L 614.867188 388.765625 L 615.289063 388.894531 L 615.425781 388.933594 L 615.847656 389.0625 L 615.984375 389.101563 L 616.125 389.144531 L 616.265625 389.183594 L 616.40625 389.226563 L 616.542969 389.269531 L 616.824219 389.347656 L 616.960938 389.390625 L 617.101563 389.429688 L 617.242188 389.472656 L 617.382813 389.511719 L 617.519531 389.550781 L 617.660156 389.59375 L 617.941406 389.671875 L 618.078125 389.710938 L 618.359375 389.789063 L 618.5 389.832031 L 618.636719 389.871094 L 619.058594 389.988281 L 619.195313 390.027344 L 619.335938 390.0625 L 619.617188 390.140625 L 619.753906 390.179688 L 619.894531 390.21875 L 620.035156 390.253906 L 620.171875 390.292969 L 620.453125 390.371094 L 620.59375 390.40625 L 620.730469 390.445313 L 620.871094 390.480469 L 621.011719 390.519531 L 621.152344 390.554688 L 621.289063 390.59375 L 621.429688 390.628906 L 621.570313 390.667969 L 621.710938 390.703125 L 621.847656 390.742188 L 622.269531 390.847656 L 622.40625 390.886719 L 622.828125 390.992188 L 622.964844 391.027344 L 623.105469 391.0625 L 623.246094 391.101563 L 623.382813 391.136719 L 623.664063 391.207031 L 623.804688 391.238281 L 623.941406 391.273438 L 624.363281 391.378906 L 624.5 391.414063 L 624.640625 391.449219 L 624.78125 391.480469 L 624.921875 391.515625 L 625.058594 391.550781 L 625.199219 391.582031 L 625.480469 391.652344 L 625.617188 391.683594 L 625.757813 391.71875 L 625.898438 391.75 L 626.035156 391.785156 L 626.175781 391.816406 L 626.316406 391.851563 L 626.457031 391.882813 L 626.59375 391.914063 L 626.734375 391.949219 L 627.015625 392.011719 L 627.152344 392.046875 L 627.574219 392.140625 L 627.710938 392.171875 L 627.851563 392.207031 L 628.132813 392.269531 L 628.269531 392.300781 L 628.691406 392.394531 L 628.828125 392.425781 L 628.96875 392.457031 L 629.109375 392.484375 L 629.246094 392.515625 L 629.667969 392.609375 L 629.804688 392.636719 L 630.226563 392.730469 L 630.363281 392.757813 L 630.503906 392.789063 L 630.644531 392.816406 L 630.785156 392.847656 L 630.921875 392.875 L 631.0625 392.90625 L 631.203125 392.933594 L 631.34375 392.964844 L 631.480469 392.992188 L 631.621094 393.023438 L 631.761719 393.050781 L 631.898438 393.078125 L 632.039063 393.109375 L 632.320313 393.164063 L 632.457031 393.195313 L 632.878906 393.277344 L 633.015625 393.304688 L 633.296875 393.359375 L 633.4375 393.390625 L 633.574219 393.417969 L 633.996094 393.5 L 634.132813 393.523438 L 634.554688 393.605469 L 634.691406 393.632813 L 634.972656 393.6875 L 635.109375 393.710938 L 635.390625 393.765625 L 635.53125 393.789063 L 635.667969 393.816406 L 635.808594 393.84375 L 635.949219 393.867188 L 636.089844 393.894531 L 636.226563 393.917969 L 636.507813 393.972656 L 636.648438 393.996094 L 636.785156 394.023438 L 637.066406 394.070313 L 637.207031 394.097656 L 637.34375 394.121094 L 637.484375 394.144531 L 637.625 394.171875 L 637.761719 394.195313 L 637.902344 394.21875 L 638.042969 394.246094 L 638.183594 394.269531 L 638.320313 394.292969 L 638.601563 394.339844 L 638.742188 394.367188 L 638.878906 394.390625 L 639.300781 394.460938 L 639.4375 394.484375 L 639.859375 394.554688 L 639.996094 394.578125 L 640.136719 394.601563 L 640.277344 394.621094 L 640.417969 394.644531 L 640.554688 394.667969 L 640.835938 394.714844 L 640.972656 394.738281 L 641.113281 394.757813 L 641.394531 394.804688 L 641.53125 394.824219 L 641.8125 394.871094 L 641.953125 394.890625 L 642.089844 394.914063 L 642.230469 394.933594 L 642.511719 394.980469 L 642.648438 395 L 642.789063 395.023438 L 643.070313 395.0625 L 643.207031 395.085938 L 643.347656 395.105469 L 643.488281 395.128906 L 643.628906 395.148438 L 643.765625 395.167969 L 643.90625 395.191406 L 644.046875 395.210938 L 644.183594 395.230469 L 644.324219 395.25 L 644.464844 395.273438 L 644.605469 395.292969 L 644.742188 395.3125 L 645.164063 395.371094 L 645.300781 395.394531 L 645.722656 395.453125 L 645.859375 395.472656 L 646.28125 395.53125 L 646.417969 395.550781 L 646.558594 395.570313 L 646.699219 395.585938 L 646.835938 395.605469 L 647.257813 395.664063 L 647.394531 395.683594 L 647.535156 395.699219 L 647.816406 395.738281 L 647.953125 395.757813 L 648.09375 395.773438 L 648.375 395.8125 L 648.511719 395.828125 L 648.792969 395.867188 L 648.933594 395.882813 L 649.070313 395.902344 L 649.210938 395.917969 L 649.351563 395.9375 L 649.492188 395.953125 L 649.628906 395.972656 L 649.769531 395.988281 L 649.910156 396.007813 L 650.046875 396.023438 L 650.1875 396.042969 L 650.46875 396.074219 L 650.605469 396.09375 L 650.886719 396.125 L 651.027344 396.144531 L 651.164063 396.160156 L 651.445313 396.191406 L 651.585938 396.210938 L 651.722656 396.226563 L 652.144531 396.273438 L 652.28125 396.292969 L 652.5625 396.324219 L 652.699219 396.339844 L 653.121094 396.386719 L 653.257813 396.402344 L 653.679688 396.449219 L 653.816406 396.464844 L 654.238281 396.511719 L 654.375 396.527344 L 654.515625 396.539063 L 654.796875 396.570313 L 654.933594 396.585938 L 655.214844 396.617188 L 655.355469 396.628906 L 655.492188 396.644531 L 655.632813 396.660156 L 655.773438 396.671875 L 655.910156 396.6875 L 656.191406 396.71875 L 656.332031 396.730469 L 656.46875 396.746094 L 656.609375 396.757813 L 656.890625 396.789063 L 657.027344 396.800781 L 657.167969 396.816406 L 657.308594 396.828125 L 657.449219 396.84375 L 657.585938 396.855469 L 657.726563 396.871094 L 657.867188 396.882813 L 658.007813 396.898438 L 658.144531 396.910156 L 658.285156 396.925781 L 658.425781 396.9375 L 658.5625 396.949219 L 658.703125 396.964844 L 658.84375 396.976563 L 658.984375 396.992188 L 659.121094 397.003906 L 659.402344 397.027344 L 659.542969 397.042969 L 659.679688 397.054688 L 659.820313 397.066406 L 659.960938 397.082031 L 660.101563 397.09375 L 660.238281 397.105469 L 660.519531 397.128906 L 660.660156 397.144531 L 660.796875 397.15625 L 661.21875 397.191406 L 661.355469 397.203125 L 661.636719 397.226563 L 661.773438 397.238281 L 661.914063 397.25 L 662.054688 397.265625 L 662.195313 397.277344 L 662.332031 397.289063 L 662.472656 397.300781 L 662.613281 397.308594 L 662.753906 397.320313 L 662.890625 397.332031 L 663.3125 397.367188 L 663.449219 397.378906 L 663.871094 397.414063 L 664.007813 397.421875 L 664.289063 397.445313 L 664.425781 397.457031 L 664.566406 397.46875 L 664.707031 397.476563 L 664.847656 397.488281 L 664.984375 397.5 L 665.125 397.511719 L 665.265625 397.519531 L 665.40625 397.53125 L 665.542969 397.542969 L 665.683594 397.554688 L 665.824219 397.5625 L 665.964844 397.574219 L 666.101563 397.582031 L 666.382813 397.605469 L 666.523438 397.613281 L 666.660156 397.625 L 666.800781 397.636719 L 666.941406 397.644531 L 667.082031 397.65625 L 667.21875 397.664063 L 667.359375 397.675781 L 667.5 397.683594 L 667.636719 397.695313 L 667.777344 397.703125 L 667.917969 397.714844 L 668.058594 397.722656 L 668.195313 397.734375 L 668.335938 397.742188 L 668.476563 397.753906 L 668.617188 397.761719 L 668.753906 397.769531 L 668.894531 397.78125 L 669.035156 397.789063 L 669.175781 397.800781 L 669.3125 397.808594 L 669.453125 397.816406 L 669.59375 397.828125 L 669.734375 397.835938 L 669.871094 397.84375 L 670.011719 397.855469 L 670.292969 397.871094 L 670.429688 397.878906 L 670.570313 397.890625 L 670.710938 397.898438 L 670.847656 397.90625 L 670.988281 397.914063 L 671.128906 397.925781 L 671.269531 397.933594 L 671.40625 397.941406 L 671.6875 397.957031 L 671.828125 397.96875 L 671.964844 397.976563 L 672.386719 398 L 672.523438 398.007813 L 672.945313 398.03125 L 673.082031 398.042969 L 673.363281 398.058594 L 673.5 398.066406 L 673.921875 398.089844 L 674.058594 398.097656 L 674.480469 398.121094 L 674.617188 398.128906 L 674.757813 398.136719 L 674.898438 398.140625 L 675.039063 398.148438 L 675.175781 398.15625 L 675.597656 398.179688 L 675.734375 398.1875 L 676.015625 398.203125 L 676.15625 398.207031 L 676.292969 398.214844 L 676.574219 398.230469 L 676.710938 398.238281 L 676.851563 398.246094 L 676.992188 398.25 L 677.132813 398.257813 L 677.269531 398.265625 L 677.410156 398.273438 L 677.550781 398.277344 L 677.691406 398.285156 L 677.828125 398.292969 L 677.96875 398.300781 L 678.109375 398.304688 L 678.25 398.3125 L 678.386719 398.320313 L 678.527344 398.328125 L 678.667969 398.332031 L 678.808594 398.339844 L 678.945313 398.347656 L 679.085938 398.351563 L 679.226563 398.359375 L 679.363281 398.367188 L 679.503906 398.371094 L 679.644531 398.378906 L 679.785156 398.382813 L 679.921875 398.390625 L 680.0625 398.398438 L 680.203125 398.402344 L 680.34375 398.410156 L 680.480469 398.414063 L 680.621094 398.421875 L 680.761719 398.425781 L 680.902344 398.433594 L 681.039063 398.441406 L 681.179688 398.445313 L 681.320313 398.453125 L 681.460938 398.457031 L 681.597656 398.464844 L 681.738281 398.46875 L 681.878906 398.476563 L 682.019531 398.480469 L 682.15625 398.488281 L 682.296875 398.492188 L 682.4375 398.5 L 682.574219 398.503906 L 682.714844 398.507813 L 682.855469 398.515625 L 682.996094 398.519531 L 683.132813 398.527344 L 683.273438 398.53125 L 683.414063 398.539063 L 683.554688 398.542969 L 683.691406 398.546875 L 683.832031 398.554688 L 684.113281 398.5625 L 684.25 398.570313 L 684.390625 398.574219 L 684.53125 398.582031 L 684.671875 398.585938 L 684.808594 398.589844 L 684.949219 398.597656 L 685.089844 398.601563 L 685.226563 398.605469 L 685.367188 398.609375 L 685.507813 398.617188 L 685.648438 398.621094 L 685.785156 398.625 L 685.925781 398.632813 L 686.207031 398.640625 L 686.34375 398.644531 L 686.484375 398.652344 L 686.765625 398.660156 L 686.902344 398.664063 L 687.042969 398.671875 L 687.324219 398.679688 L 687.460938 398.683594 L 687.601563 398.6875 L 687.742188 398.695313 L 687.882813 398.699219 L 688.019531 398.703125 L 688.300781 398.710938 L 688.4375 398.714844 L 688.578125 398.722656 L 688.859375 398.730469 L 688.996094 398.734375 L 689.417969 398.746094 L 689.554688 398.75 L 689.695313 398.757813 L 689.976563 398.765625 L 690.113281 398.769531 L 690.535156 398.78125 L 690.671875 398.785156 L 691.09375 398.796875 L 691.230469 398.800781 L 691.511719 398.808594 L 691.648438 398.8125 L 692.070313 398.824219 L 692.207031 398.828125 L 692.628906 398.839844 L 692.765625 398.84375 L 693.1875 398.855469 L 693.324219 398.859375 L 693.746094 398.871094 L 693.882813 398.875 L 694.164063 398.882813 L 694.300781 398.886719 L 694.441406 398.890625 L 694.582031 398.890625 L 694.722656 398.894531 L 694.859375 398.898438 L 695.28125 398.910156 L 695.417969 398.914063 L 695.558594 398.917969 L 695.699219 398.917969 L 695.839844 398.921875 L 695.976563 398.925781 L 696.398438 398.9375 L 696.535156 398.941406 L 696.675781 398.941406 L 696.957031 398.949219 L 697.09375 398.953125 L 697.234375 398.957031 L 697.375 398.957031 L 697.511719 398.960938 L 697.933594 398.972656 L 698.070313 398.972656 L 698.492188 398.984375 L 698.628906 398.984375 L 699.050781 398.996094 L 699.1875 398.996094 L 699.609375 399.007813 L 699.746094 399.007813 L 700.027344 399.015625 L 700.164063 399.019531 L 700.304688 399.019531 L 700.585938 399.027344 L 700.722656 399.027344 L 701.003906 399.035156 L 701.144531 399.035156 L 701.28125 399.039063 L 701.421875 399.042969 L 701.5625 399.042969 L 701.703125 399.046875 L 701.839844 399.050781 L 701.980469 399.050781 L 702.261719 399.058594 L 702.398438 399.058594 L 702.679688 399.066406 L 702.820313 399.066406 L 702.957031 399.070313 L 703.097656 399.074219 L 703.238281 399.074219 L 703.375 399.078125 L 703.515625 399.078125 L 703.796875 399.085938 L 703.933594 399.085938 L 704.074219 399.089844 L 704.214844 399.089844 L 704.355469 399.09375 L 704.492188 399.097656 L 704.632813 399.097656 L 704.773438 399.101563 L 704.914063 399.101563 L 705.050781 399.105469 L 705.191406 399.109375 L 705.332031 399.109375 L 705.472656 399.113281 L 705.609375 399.113281 L 705.75 399.117188 L 705.890625 399.117188 L 706.027344 399.121094 L 706.167969 399.125 L 706.308594 399.125 L 706.449219 399.128906 L 706.585938 399.128906 L 706.726563 399.132813 L 706.867188 399.132813 L 707.007813 399.136719 L 707.144531 399.136719 L 707.285156 399.140625 L 707.425781 399.140625 L 707.566406 399.144531 L 707.703125 399.144531 L 707.84375 399.148438 L 707.984375 399.148438 L 708.125 399.152344 L 708.261719 399.152344 L 708.402344 399.15625 L 708.542969 399.15625 L 708.683594 399.160156 L 708.820313 399.160156 L 708.960938 399.164063 L 709.101563 399.164063 L 709.238281 399.167969 L 709.378906 399.167969 L 709.519531 399.171875 L 709.660156 399.171875 L 709.796875 399.175781 L 709.9375 399.175781 L 710.078125 399.179688 L 710.21875 399.179688 L 710.355469 399.183594 L 710.636719 399.183594 L 710.777344 399.1875 L 710.914063 399.1875 L 711.054688 399.191406 L 711.195313 399.191406 L 711.335938 399.195313 L 711.472656 399.195313 L 711.613281 399.199219 L 711.894531 399.199219 L 712.03125 399.203125 L 712.171875 399.203125 L 712.3125 399.207031 L 712.589844 399.207031 L 712.730469 399.210938 L 712.871094 399.210938 L 713.007813 399.214844 L 713.289063 399.214844 L 713.429688 399.21875 L 713.566406 399.21875 L 713.707031 399.222656 L 713.988281 399.222656 L 714.125 399.226563 L 714.265625 399.226563 L 714.40625 399.230469 L 714.683594 399.230469 L 714.824219 399.234375 L 715.101563 399.234375 L 715.242188 399.238281 L 715.382813 399.238281 L 715.523438 399.242188 L 715.800781 399.242188 L 715.941406 399.246094 L 716.21875 399.246094 L 716.359375 399.25 L 716.640625 399.25 L 716.777344 399.253906 L 717.058594 399.253906 L 717.199219 399.257813 L 717.476563 399.257813 L 717.617188 399.261719 L 717.894531 399.261719 L 718.035156 399.265625 L 718.3125 399.265625 L 718.453125 399.269531 L 718.734375 399.269531 L 718.871094 399.273438 L 719.292969 399.273438 L 719.429688 399.277344 L 719.710938 399.277344 L 719.851563 399.28125 L 720.128906 399.28125 L 720.269531 399.285156 L 720.6875 399.285156 L 720.828125 399.289063 L 721.105469 399.289063 L 721.105469 399.4375 Z M 23.234375 399.4375 "/>
<path style=" stroke:none;fill-rule:nonzero;fill:rgb(90.196078%,25.490196%,45.098039%);fill-opacity:0.698039;" d="M 23.234375 399.4375 L 425.566406 399.4375 L 425.707031 399.433594 L 427.382813 399.433594 L 427.523438 399.429688 L 428.5 399.429688 L 428.640625 399.425781 L 429.335938 399.425781 L 429.476563 399.421875 L 429.894531 399.421875 L 430.035156 399.417969 L 430.453125 399.417969 L 430.59375 399.414063 L 430.871094 399.414063 L 431.011719 399.410156 L 431.152344 399.410156 L 431.292969 399.40625 L 431.570313 399.40625 L 431.710938 399.402344 L 431.851563 399.402344 L 431.988281 399.398438 L 432.128906 399.398438 L 432.269531 399.394531 L 432.410156 399.394531 L 432.546875 399.390625 L 432.6875 399.386719 L 432.828125 399.386719 L 432.964844 399.382813 L 433.105469 399.382813 L 433.386719 399.375 L 433.523438 399.371094 L 433.664063 399.367188 L 433.804688 399.367188 L 433.945313 399.363281 L 434.082031 399.359375 L 434.503906 399.347656 L 434.640625 399.339844 L 435.0625 399.328125 L 435.199219 399.320313 L 435.480469 399.3125 L 435.621094 399.304688 L 435.757813 399.296875 L 435.898438 399.292969 L 436.039063 399.285156 L 436.175781 399.277344 L 436.597656 399.253906 L 436.734375 399.246094 L 437.015625 399.230469 L 437.15625 399.21875 L 437.292969 399.210938 L 437.433594 399.199219 L 437.574219 399.191406 L 437.714844 399.179688 L 437.851563 399.167969 L 438.132813 399.144531 L 438.273438 399.128906 L 438.410156 399.117188 L 438.550781 399.101563 L 438.691406 399.089844 L 438.828125 399.074219 L 438.96875 399.058594 L 439.109375 399.039063 L 439.25 399.023438 L 439.386719 399.007813 L 439.808594 398.949219 L 439.945313 398.929688 L 440.367188 398.859375 L 440.503906 398.835938 L 440.644531 398.8125 L 440.925781 398.757813 L 441.0625 398.730469 L 441.203125 398.703125 L 441.484375 398.640625 L 441.621094 398.609375 L 441.761719 398.574219 L 441.902344 398.542969 L 442.039063 398.503906 L 442.179688 398.46875 L 442.460938 398.390625 L 442.597656 398.347656 L 442.878906 398.261719 L 443.019531 398.214844 L 443.15625 398.167969 L 443.4375 398.066406 L 443.578125 398.011719 L 443.714844 397.957031 L 443.855469 397.902344 L 443.996094 397.84375 L 444.136719 397.78125 L 444.273438 397.71875 L 444.554688 397.585938 L 444.695313 397.515625 L 444.832031 397.445313 L 444.972656 397.371094 L 445.113281 397.292969 L 445.25 397.214844 L 445.390625 397.132813 L 445.671875 396.960938 L 445.808594 396.871094 L 445.949219 396.777344 L 446.230469 396.582031 L 446.367188 396.480469 L 446.507813 396.375 L 446.648438 396.265625 L 446.789063 396.152344 L 446.925781 396.035156 L 447.066406 395.914063 L 447.347656 395.664063 L 447.484375 395.53125 L 447.765625 395.257813 L 447.902344 395.113281 L 448.042969 394.964844 L 448.324219 394.652344 L 448.460938 394.488281 L 448.601563 394.324219 L 448.742188 394.152344 L 448.882813 393.972656 L 449.019531 393.789063 L 449.160156 393.601563 L 449.300781 393.410156 L 449.441406 393.210938 L 449.578125 393.003906 L 449.71875 392.796875 L 449.859375 392.578125 L 450 392.355469 L 450.136719 392.125 L 450.277344 391.890625 L 450.417969 391.648438 L 450.558594 391.398438 L 450.695313 391.144531 L 450.835938 390.882813 L 450.976563 390.613281 L 451.113281 390.335938 L 451.253906 390.050781 L 451.394531 389.757813 L 451.535156 389.457031 L 451.671875 389.148438 L 451.8125 388.832031 L 451.953125 388.507813 L 452.09375 388.175781 L 452.230469 387.832031 L 452.371094 387.480469 L 452.511719 387.121094 L 452.652344 386.753906 L 452.789063 386.375 L 452.929688 385.984375 L 453.070313 385.589844 L 453.210938 385.179688 L 453.347656 384.761719 L 453.488281 384.335938 L 453.628906 383.894531 L 453.765625 383.445313 L 453.90625 382.988281 L 454.046875 382.515625 L 454.1875 382.03125 L 454.324219 381.539063 L 454.464844 381.035156 L 454.605469 380.515625 L 454.746094 379.988281 L 454.882813 379.445313 L 455.023438 378.890625 L 455.164063 378.324219 L 455.304688 377.742188 L 455.441406 377.152344 L 455.582031 376.546875 L 455.722656 375.925781 L 455.863281 375.292969 L 456 374.644531 L 456.140625 373.984375 L 456.28125 373.308594 L 456.421875 372.621094 L 456.558594 371.914063 L 456.699219 371.195313 L 456.839844 370.460938 L 456.976563 369.710938 L 457.117188 368.945313 L 457.257813 368.164063 L 457.398438 367.367188 L 457.535156 366.554688 L 457.675781 365.726563 L 457.816406 364.878906 L 457.957031 364.015625 L 458.09375 363.136719 L 458.234375 362.242188 L 458.375 361.328125 L 458.515625 360.398438 L 458.652344 359.449219 L 458.792969 358.480469 L 458.933594 357.496094 L 459.074219 356.496094 L 459.210938 355.472656 L 459.351563 354.433594 L 459.492188 353.375 L 459.628906 352.300781 L 459.769531 351.203125 L 459.910156 350.089844 L 460.050781 348.953125 L 460.1875 347.800781 L 460.328125 346.625 L 460.46875 345.433594 L 460.609375 344.21875 L 460.746094 342.988281 L 460.886719 341.734375 L 461.027344 340.460938 L 461.167969 339.167969 L 461.304688 337.851563 L 461.445313 336.515625 L 461.585938 335.160156 L 461.726563 333.785156 L 461.863281 332.386719 L 462.003906 330.96875 L 462.144531 329.53125 L 462.285156 328.070313 L 462.421875 326.589844 L 462.5625 325.085938 L 462.703125 323.5625 L 462.839844 322.015625 L 462.980469 320.449219 L 463.121094 318.859375 L 463.261719 317.25 L 463.398438 315.621094 L 463.539063 313.96875 L 463.679688 312.292969 L 463.820313 310.601563 L 463.957031 308.882813 L 464.097656 307.144531 L 464.238281 305.386719 L 464.378906 303.605469 L 464.515625 301.804688 L 464.65625 299.980469 L 464.796875 298.136719 L 464.9375 296.273438 L 465.074219 294.386719 L 465.214844 292.480469 L 465.355469 290.554688 L 465.496094 288.609375 L 465.632813 286.640625 L 465.773438 284.652344 L 465.914063 282.644531 L 466.050781 280.617188 L 466.191406 278.566406 L 466.332031 276.5 L 466.472656 274.414063 L 466.609375 272.308594 L 466.75 270.183594 L 466.890625 268.042969 L 467.03125 265.878906 L 467.167969 263.699219 L 467.308594 261.503906 L 467.449219 259.289063 L 467.589844 257.054688 L 467.726563 254.804688 L 467.867188 252.539063 L 468.007813 250.257813 L 468.148438 247.957031 L 468.285156 245.644531 L 468.425781 243.3125 L 468.566406 240.96875 L 468.703125 238.609375 L 468.84375 236.234375 L 468.984375 233.847656 L 469.125 231.449219 L 469.261719 229.035156 L 469.402344 226.609375 L 469.542969 224.167969 L 469.683594 221.71875 L 469.820313 219.257813 L 469.960938 216.785156 L 470.101563 214.304688 L 470.242188 211.8125 L 470.378906 209.3125 L 470.519531 206.804688 L 470.660156 204.285156 L 470.800781 201.761719 L 470.9375 199.230469 L 471.078125 196.691406 L 471.359375 191.597656 L 471.496094 189.042969 L 471.636719 186.484375 L 471.777344 183.921875 L 471.914063 181.355469 L 472.195313 176.222656 L 472.335938 173.652344 L 472.472656 171.082031 L 472.613281 168.511719 L 472.753906 165.945313 L 472.894531 163.375 L 473.03125 160.8125 L 473.171875 158.25 L 473.453125 153.140625 L 473.589844 150.59375 L 473.730469 148.050781 L 473.871094 145.515625 L 474.011719 142.988281 L 474.148438 140.464844 L 474.289063 137.953125 L 474.429688 135.453125 L 474.566406 132.960938 L 474.707031 130.480469 L 474.847656 128.011719 L 474.988281 125.554688 L 475.125 123.109375 L 475.265625 120.679688 L 475.40625 118.265625 L 475.546875 115.867188 L 475.683594 113.484375 L 475.824219 111.117188 L 475.964844 108.769531 L 476.105469 106.4375 L 476.242188 104.128906 L 476.382813 101.835938 L 476.523438 99.566406 L 476.664063 97.316406 L 476.800781 95.089844 L 476.941406 92.886719 L 477.082031 90.707031 L 477.222656 88.550781 L 477.359375 86.417969 L 477.5 84.3125 L 477.640625 82.234375 L 477.777344 80.183594 L 477.917969 78.160156 L 478.058594 76.164063 L 478.199219 74.199219 L 478.335938 72.265625 L 478.476563 70.359375 L 478.617188 68.484375 L 478.757813 66.644531 L 478.894531 64.835938 L 479.035156 63.058594 L 479.175781 61.316406 L 479.316406 59.609375 L 479.453125 57.9375 L 479.59375 56.300781 L 479.734375 54.703125 L 479.875 53.140625 L 480.011719 51.613281 L 480.152344 50.125 L 480.292969 48.675781 L 480.429688 47.265625 L 480.570313 45.898438 L 480.710938 44.566406 L 480.851563 43.277344 L 480.988281 42.03125 L 481.128906 40.824219 L 481.269531 39.660156 L 481.410156 38.539063 L 481.546875 37.457031 L 481.6875 36.421875 L 481.828125 35.429688 L 481.96875 34.480469 L 482.105469 33.578125 L 482.246094 32.71875 L 482.386719 31.90625 L 482.527344 31.136719 L 482.664063 30.414063 L 482.804688 29.738281 L 482.945313 29.109375 L 483.085938 28.523438 L 483.222656 27.988281 L 483.363281 27.496094 L 483.503906 27.054688 L 483.640625 26.65625 L 483.78125 26.308594 L 483.921875 26.007813 L 484.0625 25.753906 L 484.199219 25.550781 L 484.339844 25.390625 L 484.480469 25.28125 L 484.621094 25.21875 L 484.757813 25.207031 L 484.898438 25.242188 L 485.039063 25.324219 L 485.179688 25.453125 L 485.316406 25.628906 L 485.457031 25.855469 L 485.597656 26.128906 L 485.738281 26.449219 L 485.875 26.816406 L 486.015625 27.234375 L 486.15625 27.695313 L 486.292969 28.207031 L 486.433594 28.765625 L 486.574219 29.367188 L 486.714844 30.015625 L 486.851563 30.714844 L 486.992188 31.453125 L 487.132813 32.242188 L 487.273438 33.074219 L 487.410156 33.953125 L 487.550781 34.875 L 487.691406 35.839844 L 487.832031 36.851563 L 487.96875 37.90625 L 488.109375 39.003906 L 488.25 40.140625 L 488.390625 41.324219 L 488.527344 42.546875 L 488.667969 43.8125 L 488.808594 45.121094 L 488.949219 46.46875 L 489.085938 47.855469 L 489.226563 49.28125 L 489.367188 50.746094 L 489.503906 52.25 L 489.644531 53.789063 L 489.785156 55.367188 L 489.925781 56.984375 L 490.0625 58.636719 L 490.203125 60.320313 L 490.34375 62.042969 L 490.484375 63.800781 L 490.621094 65.589844 L 490.761719 67.414063 L 490.902344 69.265625 L 491.042969 71.152344 L 491.179688 73.070313 L 491.320313 75.019531 L 491.460938 77 L 491.601563 79.003906 L 491.738281 81.039063 L 491.878906 83.105469 L 492.019531 85.195313 L 492.160156 87.308594 L 492.296875 89.449219 L 492.4375 91.617188 L 492.578125 93.808594 L 492.714844 96.023438 L 492.855469 98.257813 L 492.996094 100.515625 L 493.136719 102.796875 L 493.273438 105.09375 L 493.414063 107.414063 L 493.554688 109.75 L 493.695313 112.109375 L 493.832031 114.480469 L 493.972656 116.871094 L 494.113281 119.277344 L 494.253906 121.699219 L 494.390625 124.132813 L 494.53125 126.582031 L 494.671875 129.046875 L 494.8125 131.519531 L 494.949219 134.003906 L 495.089844 136.5 L 495.230469 139.007813 L 495.367188 141.523438 L 495.507813 144.046875 L 495.648438 146.578125 L 495.789063 149.117188 L 495.925781 151.660156 L 496.066406 154.210938 L 496.207031 156.765625 L 496.347656 159.324219 L 496.484375 161.886719 L 496.765625 167.019531 L 496.90625 169.589844 L 497.042969 172.160156 L 497.183594 174.730469 L 497.324219 177.296875 L 497.464844 179.867188 L 497.601563 182.433594 L 497.882813 187.558594 L 498.023438 190.113281 L 498.160156 192.664063 L 498.300781 195.214844 L 498.441406 197.753906 L 498.578125 200.292969 L 498.71875 202.820313 L 498.859375 205.34375 L 499 207.855469 L 499.136719 210.363281 L 499.277344 212.859375 L 499.417969 215.347656 L 499.558594 217.824219 L 499.695313 220.292969 L 499.835938 222.75 L 499.976563 225.191406 L 500.117188 227.625 L 500.253906 230.046875 L 500.394531 232.457031 L 500.535156 234.851563 L 500.675781 237.234375 L 500.8125 239.601563 L 500.953125 241.953125 L 501.09375 244.292969 L 501.230469 246.617188 L 501.371094 248.921875 L 501.511719 251.214844 L 501.652344 253.492188 L 501.789063 255.75 L 501.929688 257.992188 L 502.070313 260.21875 L 502.210938 262.425781 L 502.347656 264.617188 L 502.488281 266.789063 L 502.628906 268.941406 L 502.769531 271.078125 L 502.90625 273.195313 L 503.046875 275.292969 L 503.1875 277.371094 L 503.328125 279.429688 L 503.464844 281.46875 L 503.605469 283.488281 L 503.746094 285.488281 L 503.886719 287.46875 L 504.023438 289.425781 L 504.164063 291.367188 L 504.304688 293.285156 L 504.441406 295.179688 L 504.582031 297.058594 L 504.722656 298.914063 L 504.863281 300.75 L 505 302.5625 L 505.140625 304.355469 L 505.28125 306.125 L 505.421875 307.875 L 505.558594 309.605469 L 505.699219 311.3125 L 505.839844 313 L 505.980469 314.664063 L 506.117188 316.308594 L 506.257813 317.929688 L 506.398438 319.53125 L 506.539063 321.109375 L 506.675781 322.667969 L 506.816406 324.203125 L 506.957031 325.71875 L 507.09375 327.210938 L 507.234375 328.683594 L 507.375 330.136719 L 507.515625 331.566406 L 507.652344 332.976563 L 507.792969 334.363281 L 507.933594 335.734375 L 508.074219 337.078125 L 508.210938 338.40625 L 508.351563 339.710938 L 508.492188 340.996094 L 508.632813 342.261719 L 508.769531 343.507813 L 508.910156 344.730469 L 509.050781 345.9375 L 509.191406 347.121094 L 509.328125 348.285156 L 509.46875 349.433594 L 509.609375 350.558594 L 509.75 351.664063 L 509.886719 352.753906 L 510.027344 353.820313 L 510.167969 354.871094 L 510.304688 355.902344 L 510.445313 356.917969 L 510.585938 357.914063 L 510.726563 358.890625 L 510.863281 359.847656 L 511.003906 360.789063 L 511.144531 361.714844 L 511.285156 362.621094 L 511.421875 363.507813 L 511.5625 364.378906 L 511.703125 365.234375 L 511.84375 366.074219 L 511.980469 366.898438 L 512.121094 367.703125 L 512.261719 368.492188 L 512.402344 369.269531 L 512.539063 370.027344 L 512.679688 370.769531 L 512.820313 371.5 L 512.960938 372.210938 L 513.097656 372.910156 L 513.238281 373.59375 L 513.378906 374.261719 L 513.515625 374.917969 L 513.65625 375.558594 L 513.796875 376.1875 L 513.9375 376.800781 L 514.074219 377.402344 L 514.214844 377.988281 L 514.355469 378.5625 L 514.632813 379.671875 L 514.773438 380.210938 L 514.914063 380.734375 L 515.054688 381.246094 L 515.191406 381.746094 L 515.332031 382.238281 L 515.472656 382.714844 L 515.613281 383.179688 L 515.75 383.636719 L 515.890625 384.082031 L 516.03125 384.515625 L 516.167969 384.9375 L 516.308594 385.351563 L 516.449219 385.757813 L 516.589844 386.148438 L 516.726563 386.535156 L 516.867188 386.910156 L 517.007813 387.273438 L 517.148438 387.628906 L 517.285156 387.976563 L 517.425781 388.316406 L 517.566406 388.644531 L 517.707031 388.964844 L 517.84375 389.277344 L 517.984375 389.582031 L 518.125 389.878906 L 518.265625 390.171875 L 518.402344 390.453125 L 518.542969 390.726563 L 518.683594 390.992188 L 518.824219 391.253906 L 518.960938 391.503906 L 519.101563 391.75 L 519.242188 391.992188 L 519.378906 392.222656 L 519.519531 392.449219 L 519.660156 392.671875 L 519.800781 392.882813 L 519.9375 393.09375 L 520.21875 393.492188 L 520.359375 393.683594 L 520.496094 393.867188 L 520.636719 394.046875 L 520.777344 394.222656 L 520.917969 394.394531 L 521.054688 394.558594 L 521.195313 394.71875 L 521.335938 394.875 L 521.476563 395.027344 L 521.613281 395.171875 L 521.753906 395.316406 L 521.894531 395.453125 L 522.03125 395.585938 L 522.171875 395.71875 L 522.3125 395.84375 L 522.453125 395.964844 L 522.589844 396.082031 L 522.730469 396.199219 L 523.011719 396.417969 L 523.148438 396.523438 L 523.289063 396.625 L 523.429688 396.722656 L 523.570313 396.816406 L 523.707031 396.910156 L 523.847656 397 L 523.988281 397.085938 L 524.128906 397.167969 L 524.265625 397.25 L 524.40625 397.328125 L 524.6875 397.476563 L 524.824219 397.546875 L 524.964844 397.617188 L 525.105469 397.679688 L 525.242188 397.746094 L 525.382813 397.808594 L 525.664063 397.925781 L 525.800781 397.980469 L 525.941406 398.035156 L 526.222656 398.136719 L 526.359375 398.1875 L 526.5 398.234375 L 526.640625 398.277344 L 526.78125 398.324219 L 526.917969 398.367188 L 527.339844 398.484375 L 527.476563 398.519531 L 527.757813 398.589844 L 527.894531 398.625 L 528.035156 398.65625 L 528.175781 398.683594 L 528.316406 398.714844 L 528.453125 398.742188 L 528.875 398.824219 L 529.011719 398.847656 L 529.292969 398.894531 L 529.433594 398.914063 L 529.570313 398.9375 L 529.992188 398.996094 L 530.128906 399.011719 L 530.269531 399.03125 L 530.550781 399.0625 L 530.6875 399.078125 L 530.96875 399.109375 L 531.105469 399.121094 L 531.246094 399.136719 L 531.527344 399.160156 L 531.664063 399.171875 L 531.945313 399.195313 L 532.085938 399.203125 L 532.222656 399.214844 L 532.363281 399.222656 L 532.503906 399.234375 L 532.644531 399.242188 L 532.78125 399.25 L 533.203125 399.273438 L 533.339844 399.28125 L 533.621094 399.296875 L 533.761719 399.300781 L 533.898438 399.308594 L 534.039063 399.3125 L 534.179688 399.320313 L 534.316406 399.324219 L 534.457031 399.328125 L 534.597656 399.335938 L 534.738281 399.339844 L 534.875 399.34375 L 535.296875 399.355469 L 535.433594 399.359375 L 535.855469 399.371094 L 535.992188 399.375 L 536.132813 399.375 L 536.414063 399.382813 L 536.550781 399.382813 L 536.832031 399.390625 L 536.96875 399.390625 L 537.109375 399.394531 L 537.25 399.394531 L 537.390625 399.398438 L 537.527344 399.398438 L 537.667969 399.402344 L 537.808594 399.402344 L 537.949219 399.40625 L 538.085938 399.40625 L 538.226563 399.410156 L 538.507813 399.410156 L 538.644531 399.414063 L 538.925781 399.414063 L 539.066406 399.417969 L 539.484375 399.417969 L 539.625 399.421875 L 540.042969 399.421875 L 540.179688 399.425781 L 540.878906 399.425781 L 541.019531 399.429688 L 541.996094 399.429688 L 542.136719 399.433594 L 543.8125 399.433594 L 543.949219 399.4375 L 721.105469 399.4375 Z M 23.234375 399.4375 "/>
<path style=" stroke:none;fill-rule:nonzero;fill:rgb(18.431373%,30.980392%,30.980392%);fill-opacity:0.698039;" d="M 23.234375 399.4375 L 404.628906 399.4375 L 404.765625 399.433594 L 406.441406 399.433594 L 406.582031 399.429688 L 407.558594 399.429688 L 407.699219 399.425781 L 408.398438 399.425781 L 408.535156 399.421875 L 408.957031 399.421875 L 409.09375 399.417969 L 409.511719 399.417969 L 409.652344 399.414063 L 409.933594 399.414063 L 410.070313 399.410156 L 410.210938 399.410156 L 410.351563 399.40625 L 410.628906 399.40625 L 410.769531 399.402344 L 410.910156 399.402344 L 411.050781 399.398438 L 411.1875 399.398438 L 411.328125 399.394531 L 411.46875 399.394531 L 411.609375 399.390625 L 411.746094 399.386719 L 411.886719 399.386719 L 412.027344 399.382813 L 412.164063 399.378906 L 412.304688 399.375 L 412.445313 399.375 L 412.585938 399.371094 L 412.722656 399.367188 L 413.144531 399.355469 L 413.28125 399.351563 L 413.703125 399.339844 L 413.839844 399.335938 L 413.980469 399.328125 L 414.261719 399.320313 L 414.398438 399.3125 L 414.539063 399.308594 L 414.820313 399.292969 L 414.957031 399.289063 L 415.238281 399.273438 L 415.375 399.265625 L 415.65625 399.25 L 415.796875 399.238281 L 415.933594 399.230469 L 416.074219 399.222656 L 416.214844 399.210938 L 416.355469 399.203125 L 416.492188 399.191406 L 416.914063 399.15625 L 417.050781 399.144531 L 417.191406 399.128906 L 417.332031 399.117188 L 417.472656 399.101563 L 417.609375 399.085938 L 417.890625 399.054688 L 418.027344 399.039063 L 418.167969 399.019531 L 418.308594 399.003906 L 418.449219 398.984375 L 418.585938 398.964844 L 418.726563 398.945313 L 418.867188 398.921875 L 419.007813 398.902344 L 419.144531 398.878906 L 419.285156 398.855469 L 419.425781 398.828125 L 419.566406 398.804688 L 419.703125 398.777344 L 419.984375 398.722656 L 420.125 398.691406 L 420.261719 398.660156 L 420.402344 398.628906 L 420.683594 398.558594 L 420.820313 398.523438 L 420.960938 398.488281 L 421.101563 398.449219 L 421.238281 398.40625 L 421.378906 398.367188 L 421.519531 398.324219 L 421.660156 398.277344 L 421.796875 398.230469 L 421.9375 398.183594 L 422.21875 398.082031 L 422.355469 398.03125 L 422.496094 397.976563 L 422.777344 397.859375 L 422.914063 397.796875 L 423.054688 397.734375 L 423.335938 397.601563 L 423.472656 397.53125 L 423.753906 397.382813 L 423.894531 397.304688 L 424.03125 397.222656 L 424.171875 397.140625 L 424.3125 397.054688 L 424.449219 396.964844 L 424.589844 396.875 L 424.871094 396.679688 L 425.007813 396.578125 L 425.289063 396.367188 L 425.429688 396.253906 L 425.566406 396.140625 L 425.847656 395.898438 L 425.988281 395.769531 L 426.125 395.640625 L 426.40625 395.367188 L 426.546875 395.222656 L 426.683594 395.074219 L 426.824219 394.921875 L 426.964844 394.765625 L 427.101563 394.605469 L 427.242188 394.4375 L 427.382813 394.265625 L 427.523438 394.085938 L 427.660156 393.90625 L 427.800781 393.71875 L 427.941406 393.523438 L 428.082031 393.324219 L 428.21875 393.117188 L 428.359375 392.90625 L 428.5 392.691406 L 428.640625 392.464844 L 428.777344 392.234375 L 428.917969 392 L 429.058594 391.753906 L 429.199219 391.503906 L 429.335938 391.246094 L 429.476563 390.984375 L 429.617188 390.710938 L 429.757813 390.429688 L 429.894531 390.144531 L 430.035156 389.847656 L 430.175781 389.542969 L 430.3125 389.230469 L 430.453125 388.910156 L 430.59375 388.582031 L 430.734375 388.246094 L 430.871094 387.898438 L 431.011719 387.542969 L 431.152344 387.179688 L 431.292969 386.804688 L 431.429688 386.417969 L 431.570313 386.023438 L 431.710938 385.621094 L 431.851563 385.207031 L 431.988281 384.78125 L 432.128906 384.34375 L 432.269531 383.898438 L 432.410156 383.4375 L 432.546875 382.96875 L 432.6875 382.488281 L 432.828125 381.996094 L 432.964844 381.492188 L 433.105469 380.976563 L 433.246094 380.445313 L 433.386719 379.90625 L 433.523438 379.351563 L 433.664063 378.785156 L 433.804688 378.203125 L 433.945313 377.609375 L 434.082031 377.003906 L 434.222656 376.378906 L 434.363281 375.746094 L 434.503906 375.09375 L 434.640625 374.429688 L 434.78125 373.753906 L 434.921875 373.058594 L 435.0625 372.347656 L 435.199219 371.625 L 435.339844 370.886719 L 435.480469 370.128906 L 435.621094 369.355469 L 435.757813 368.570313 L 435.898438 367.765625 L 436.039063 366.945313 L 436.175781 366.105469 L 436.316406 365.25 L 436.457031 364.378906 L 436.597656 363.488281 L 436.734375 362.582031 L 436.875 361.65625 L 437.015625 360.710938 L 437.15625 359.75 L 437.292969 358.769531 L 437.433594 357.769531 L 437.574219 356.75 L 437.714844 355.714844 L 437.851563 354.65625 L 437.992188 353.582031 L 438.132813 352.484375 L 438.273438 351.371094 L 438.410156 350.234375 L 438.550781 349.082031 L 438.691406 347.90625 L 438.828125 346.707031 L 438.96875 345.492188 L 439.109375 344.253906 L 439.25 342.996094 L 439.386719 341.714844 L 439.527344 340.414063 L 439.667969 339.09375 L 439.808594 337.75 L 439.945313 336.382813 L 440.085938 334.996094 L 440.226563 333.589844 L 440.367188 332.160156 L 440.503906 330.707031 L 440.644531 329.230469 L 440.785156 327.734375 L 440.925781 326.21875 L 441.0625 324.675781 L 441.203125 323.113281 L 441.34375 321.527344 L 441.484375 319.917969 L 441.621094 318.289063 L 441.761719 316.636719 L 441.902344 314.960938 L 442.039063 313.261719 L 442.179688 311.542969 L 442.320313 309.796875 L 442.460938 308.035156 L 442.597656 306.246094 L 442.738281 304.433594 L 442.878906 302.601563 L 443.019531 300.75 L 443.15625 298.871094 L 443.296875 296.972656 L 443.4375 295.050781 L 443.578125 293.109375 L 443.714844 291.144531 L 443.855469 289.15625 L 443.996094 287.148438 L 444.136719 285.117188 L 444.273438 283.066406 L 444.414063 280.996094 L 444.554688 278.902344 L 444.695313 276.789063 L 444.832031 274.65625 L 444.972656 272.5 L 445.113281 270.328125 L 445.25 268.132813 L 445.390625 265.917969 L 445.53125 263.683594 L 445.671875 261.433594 L 445.808594 259.160156 L 445.949219 256.871094 L 446.089844 254.5625 L 446.230469 252.238281 L 446.367188 249.894531 L 446.507813 247.535156 L 446.648438 245.15625 L 446.789063 242.761719 L 446.925781 240.351563 L 447.066406 237.925781 L 447.207031 235.488281 L 447.347656 233.03125 L 447.484375 230.5625 L 447.625 228.078125 L 447.765625 225.578125 L 447.902344 223.070313 L 448.042969 220.546875 L 448.183594 218.011719 L 448.324219 215.464844 L 448.460938 212.90625 L 448.601563 210.339844 L 448.742188 207.761719 L 448.882813 205.171875 L 449.019531 202.578125 L 449.160156 199.972656 L 449.300781 197.359375 L 449.441406 194.738281 L 449.578125 192.113281 L 449.71875 189.480469 L 449.859375 186.84375 L 450 184.203125 L 450.136719 181.558594 L 450.277344 178.910156 L 450.417969 176.257813 L 450.558594 173.601563 L 450.695313 170.949219 L 450.976563 165.636719 L 451.113281 162.984375 L 451.394531 157.679688 L 451.535156 155.03125 L 451.671875 152.386719 L 451.953125 147.113281 L 452.09375 144.484375 L 452.230469 141.863281 L 452.371094 139.25 L 452.511719 136.644531 L 452.652344 134.046875 L 452.789063 131.460938 L 452.929688 128.882813 L 453.070313 126.320313 L 453.210938 123.765625 L 453.347656 121.226563 L 453.488281 118.699219 L 453.628906 116.1875 L 453.765625 113.691406 L 453.90625 111.214844 L 454.046875 108.75 L 454.1875 106.304688 L 454.324219 103.878906 L 454.464844 101.472656 L 454.605469 99.085938 L 454.746094 96.71875 L 454.882813 94.375 L 455.023438 92.054688 L 455.164063 89.757813 L 455.304688 87.480469 L 455.441406 85.234375 L 455.582031 83.007813 L 455.722656 80.8125 L 455.863281 78.644531 L 456 76.5 L 456.140625 74.386719 L 456.28125 72.304688 L 456.421875 70.25 L 456.558594 68.230469 L 456.699219 66.238281 L 456.839844 64.28125 L 456.976563 62.355469 L 457.117188 60.464844 L 457.257813 58.609375 L 457.398438 56.789063 L 457.535156 55.003906 L 457.675781 53.253906 L 457.816406 51.542969 L 457.957031 49.867188 L 458.09375 48.234375 L 458.234375 46.636719 L 458.375 45.082031 L 458.515625 43.5625 L 458.652344 42.089844 L 458.792969 40.65625 L 458.933594 39.261719 L 459.074219 37.914063 L 459.210938 36.605469 L 459.351563 35.34375 L 459.492188 34.125 L 459.628906 32.949219 L 459.769531 31.820313 L 459.910156 30.734375 L 460.050781 29.699219 L 460.1875 28.707031 L 460.328125 27.757813 L 460.46875 26.859375 L 460.609375 26.007813 L 460.746094 25.207031 L 460.886719 24.449219 L 461.027344 23.742188 L 461.167969 23.082031 L 461.304688 22.472656 L 461.445313 21.910156 L 461.585938 21.398438 L 461.726563 20.9375 L 461.863281 20.523438 L 462.003906 20.160156 L 462.144531 19.847656 L 462.285156 19.582031 L 462.421875 19.371094 L 462.5625 19.207031 L 462.703125 19.09375 L 462.839844 19.03125 L 462.980469 19.019531 L 463.121094 19.058594 L 463.261719 19.148438 L 463.398438 19.289063 L 463.539063 19.476563 L 463.679688 19.71875 L 463.820313 20.007813 L 463.957031 20.347656 L 464.097656 20.738281 L 464.238281 21.175781 L 464.378906 21.664063 L 464.515625 22.203125 L 464.65625 22.789063 L 464.796875 23.425781 L 464.9375 24.113281 L 465.074219 24.84375 L 465.214844 25.628906 L 465.355469 26.457031 L 465.496094 27.332031 L 465.632813 28.257813 L 465.773438 29.226563 L 465.914063 30.246094 L 466.050781 31.308594 L 466.191406 32.414063 L 466.332031 33.570313 L 466.472656 34.765625 L 466.609375 36.011719 L 466.75 37.296875 L 466.890625 38.625 L 467.03125 39.996094 L 467.167969 41.410156 L 467.308594 42.867188 L 467.449219 44.363281 L 467.589844 45.902344 L 467.726563 47.480469 L 467.867188 49.097656 L 468.007813 50.753906 L 468.148438 52.449219 L 468.285156 54.179688 L 468.425781 55.945313 L 468.566406 57.75 L 468.703125 59.589844 L 468.84375 61.464844 L 468.984375 63.375 L 469.125 65.316406 L 469.261719 67.292969 L 469.402344 69.300781 L 469.542969 71.339844 L 469.683594 73.410156 L 469.820313 75.507813 L 469.960938 77.636719 L 470.101563 79.792969 L 470.242188 81.976563 L 470.378906 84.1875 L 470.519531 86.425781 L 470.660156 88.6875 L 470.800781 90.976563 L 470.9375 93.285156 L 471.078125 95.621094 L 471.21875 97.976563 L 471.359375 100.351563 L 471.496094 102.75 L 471.636719 105.167969 L 471.777344 107.605469 L 471.914063 110.058594 L 472.054688 112.53125 L 472.195313 115.019531 L 472.335938 117.523438 L 472.472656 120.042969 L 472.613281 122.574219 L 472.753906 125.121094 L 472.894531 127.679688 L 473.03125 130.253906 L 473.171875 132.835938 L 473.3125 135.425781 L 473.453125 138.027344 L 473.589844 140.636719 L 473.730469 143.257813 L 473.871094 145.882813 L 474.011719 148.515625 L 474.148438 151.152344 L 474.289063 153.792969 L 474.429688 156.4375 L 474.566406 159.089844 L 474.847656 164.394531 L 474.988281 167.050781 L 475.125 169.707031 L 475.265625 172.359375 L 475.40625 175.015625 L 475.546875 177.667969 L 475.683594 180.316406 L 475.824219 182.964844 L 475.964844 185.609375 L 476.105469 188.246094 L 476.242188 190.882813 L 476.382813 193.511719 L 476.523438 196.132813 L 476.664063 198.75 L 476.800781 201.359375 L 476.941406 203.957031 L 477.082031 206.550781 L 477.222656 209.132813 L 477.359375 211.707031 L 477.5 214.269531 L 477.640625 216.820313 L 477.777344 219.359375 L 477.917969 221.890625 L 478.058594 224.40625 L 478.199219 226.910156 L 478.335938 229.398438 L 478.476563 231.875 L 478.617188 234.339844 L 478.757813 236.785156 L 478.894531 239.21875 L 479.035156 241.636719 L 479.175781 244.039063 L 479.316406 246.421875 L 479.453125 248.792969 L 479.59375 251.140625 L 479.734375 253.476563 L 479.875 255.792969 L 480.011719 258.089844 L 480.152344 260.371094 L 480.292969 262.632813 L 480.429688 264.875 L 480.570313 267.097656 L 480.710938 269.300781 L 480.851563 271.484375 L 480.988281 273.648438 L 481.128906 275.792969 L 481.269531 277.914063 L 481.410156 280.019531 L 481.546875 282.101563 L 481.6875 284.160156 L 481.828125 286.199219 L 481.96875 288.21875 L 482.105469 290.214844 L 482.246094 292.191406 L 482.386719 294.144531 L 482.527344 296.074219 L 482.664063 297.984375 L 482.804688 299.871094 L 482.945313 301.738281 L 483.085938 303.578125 L 483.222656 305.402344 L 483.363281 307.199219 L 483.503906 308.976563 L 483.640625 310.726563 L 483.78125 312.460938 L 483.921875 314.167969 L 484.0625 315.855469 L 484.199219 317.515625 L 484.339844 319.15625 L 484.480469 320.777344 L 484.621094 322.371094 L 484.757813 323.945313 L 484.898438 325.5 L 485.039063 327.027344 L 485.179688 328.535156 L 485.316406 330.019531 L 485.457031 331.480469 L 485.597656 332.921875 L 485.738281 334.339844 L 485.875 335.738281 L 486.015625 337.113281 L 486.15625 338.464844 L 486.292969 339.796875 L 486.433594 341.109375 L 486.574219 342.398438 L 486.714844 343.667969 L 486.851563 344.914063 L 486.992188 346.140625 L 487.132813 347.347656 L 487.273438 348.53125 L 487.410156 349.695313 L 487.550781 350.84375 L 487.691406 351.964844 L 487.832031 353.070313 L 487.96875 354.15625 L 488.109375 355.222656 L 488.25 356.269531 L 488.390625 357.292969 L 488.527344 358.304688 L 488.667969 359.292969 L 488.808594 360.261719 L 488.949219 361.214844 L 489.085938 362.148438 L 489.226563 363.066406 L 489.367188 363.964844 L 489.503906 364.84375 L 489.644531 365.707031 L 489.785156 366.554688 L 489.925781 367.382813 L 490.0625 368.195313 L 490.203125 368.988281 L 490.34375 369.769531 L 490.484375 370.53125 L 490.621094 371.28125 L 490.761719 372.011719 L 490.902344 372.726563 L 491.179688 374.113281 L 491.320313 374.785156 L 491.460938 375.441406 L 491.601563 376.085938 L 491.738281 376.710938 L 491.878906 377.328125 L 492.019531 377.925781 L 492.160156 378.515625 L 492.296875 379.085938 L 492.4375 379.648438 L 492.578125 380.195313 L 492.714844 380.730469 L 492.855469 381.253906 L 492.996094 381.761719 L 493.136719 382.261719 L 493.273438 382.746094 L 493.414063 383.222656 L 493.554688 383.683594 L 493.695313 384.136719 L 493.832031 384.578125 L 493.972656 385.007813 L 494.113281 385.425781 L 494.253906 385.835938 L 494.390625 386.234375 L 494.53125 386.625 L 494.671875 387.003906 L 494.8125 387.375 L 494.949219 387.734375 L 495.089844 388.085938 L 495.230469 388.425781 L 495.367188 388.757813 L 495.507813 389.082031 L 495.648438 389.398438 L 495.789063 389.707031 L 495.925781 390.003906 L 496.066406 390.296875 L 496.207031 390.582031 L 496.347656 390.855469 L 496.484375 391.125 L 496.625 391.386719 L 496.765625 391.640625 L 496.90625 391.886719 L 497.042969 392.125 L 497.183594 392.359375 L 497.324219 392.585938 L 497.464844 392.804688 L 497.601563 393.019531 L 497.742188 393.230469 L 498.023438 393.628906 L 498.160156 393.816406 L 498.300781 394.003906 L 498.441406 394.183594 L 498.578125 394.355469 L 498.71875 394.527344 L 498.859375 394.691406 L 499 394.851563 L 499.136719 395.003906 L 499.277344 395.15625 L 499.417969 395.300781 L 499.695313 395.578125 L 499.835938 395.710938 L 499.976563 395.839844 L 500.117188 395.964844 L 500.253906 396.085938 L 500.675781 396.425781 L 500.8125 396.53125 L 501.09375 396.734375 L 501.230469 396.828125 L 501.371094 396.921875 L 501.652344 397.101563 L 501.789063 397.183594 L 501.929688 397.265625 L 502.210938 397.421875 L 502.347656 397.496094 L 502.628906 397.636719 L 502.769531 397.703125 L 502.90625 397.765625 L 503.1875 397.890625 L 503.328125 397.949219 L 503.464844 398.003906 L 503.605469 398.058594 L 503.886719 398.160156 L 504.023438 398.210938 L 504.164063 398.257813 L 504.304688 398.300781 L 504.441406 398.347656 L 504.582031 398.390625 L 504.863281 398.46875 L 505 398.507813 L 505.421875 398.613281 L 505.558594 398.644531 L 505.839844 398.707031 L 505.980469 398.734375 L 506.117188 398.765625 L 506.257813 398.792969 L 506.398438 398.816406 L 506.539063 398.84375 L 506.675781 398.867188 L 506.957031 398.914063 L 507.09375 398.933594 L 507.234375 398.957031 L 507.515625 398.996094 L 507.652344 399.011719 L 507.792969 399.03125 L 508.074219 399.0625 L 508.210938 399.078125 L 508.632813 399.125 L 508.769531 399.136719 L 509.050781 399.160156 L 509.191406 399.175781 L 509.328125 399.183594 L 509.75 399.21875 L 509.886719 399.226563 L 510.027344 399.234375 L 510.167969 399.246094 L 510.304688 399.253906 L 510.726563 399.277344 L 510.863281 399.285156 L 511.003906 399.289063 L 511.285156 399.304688 L 511.421875 399.308594 L 511.5625 399.316406 L 511.703125 399.320313 L 511.84375 399.328125 L 511.980469 399.332031 L 512.261719 399.339844 L 512.402344 399.347656 L 512.539063 399.351563 L 512.960938 399.363281 L 513.097656 399.367188 L 513.238281 399.367188 L 513.378906 399.371094 L 513.515625 399.375 L 513.796875 399.382813 L 513.9375 399.382813 L 514.074219 399.386719 L 514.214844 399.390625 L 514.355469 399.390625 L 514.496094 399.394531 L 514.632813 399.394531 L 514.773438 399.398438 L 514.914063 399.398438 L 515.054688 399.402344 L 515.191406 399.402344 L 515.332031 399.40625 L 515.472656 399.40625 L 515.613281 399.410156 L 515.890625 399.410156 L 516.03125 399.414063 L 516.308594 399.414063 L 516.449219 399.417969 L 516.867188 399.417969 L 517.007813 399.421875 L 517.425781 399.421875 L 517.566406 399.425781 L 518.125 399.425781 L 518.265625 399.429688 L 519.242188 399.429688 L 519.378906 399.433594 L 521.054688 399.433594 L 521.195313 399.4375 L 721.105469 399.4375 Z M 23.234375 399.4375 "/>
<path style="fill:none;stroke-width:1.280374;stroke-linecap:butt;stroke-linejoin:round;stroke:rgb(0%,0%,0%);stroke-opacity:0.501961;stroke-dasharray:8.962618,3.841122;stroke-miterlimit:10;" d="M 484.730469 418.460938 L 484.730469 0 "/>
<path style="fill:none;stroke-width:1.066978;stroke-linecap:butt;stroke-linejoin:round;stroke:rgb(0%,0%,0%);stroke-opacity:1;stroke-miterlimit:10;" d="M -11.660156 399.4375 L 756 399.4375 "/>
</g>
</svg>
